<svg width="22" height="22" viewbox="0 0 22 22" xmlns="http://www.w3.org/2000/svg" fill="#69af07">
    <path fill-rule="evenodd" clip-rule="evenodd" d="M19.7145 3.04144H2.28557C1.03607 3.04144 0.0194855 4.05802 0.0194855 5.30753V16.6926C0.0194855 17.9421 1.03607 18.9586 2.28557 18.9586H19.7145C20.964 18.9586 21.9805 17.9421 21.9805 16.6926V5.30753C21.9805 4.05802 20.9639 3.04144 19.7145 3.04144ZM18.9674 4.71119L11.5188 10.6201C11.2133 10.8624 10.7866 10.8624 10.4811 10.6201L3.03259 4.71119H18.9674ZM20.3108 16.6926C20.3108 17.0219 20.0438 17.2889 19.7144 17.2889H2.28557C1.95622 17.2889 1.68923 17.0219 1.68923 16.6926V5.77688L9.44346 11.9282C9.88436 12.278 10.4372 12.4706 11.0001 12.4706C11.5629 12.4706 12.1157 12.278 12.5567 11.9282L20.3108 5.77688V16.6926H20.3108Z"/>
    <path fill-rule="evenodd" clip-rule="evenodd" d="M19.7145 18.9781H2.28557C1.02531 18.9781 0 17.9528 0 16.6926V5.30748C0 4.04722 1.02531 3.02191 2.28557 3.02191H19.7145C20.9747 3.02191 22 4.04722 22 5.30748V16.6926C22 17.9528 20.9747 18.9781 19.7145 18.9781ZM2.28557 3.06089C1.04679 3.06089 0.0389763 4.06874 0.0389763 5.30748V16.6926C0.0389763 17.9313 1.04679 18.9391 2.28557 18.9391H19.7145C20.9532 18.9391 21.961 17.9313 21.961 16.6926V5.30748C21.961 4.0687 20.9532 3.06089 19.7145 3.06089H2.28557ZM19.7145 17.3083H2.28557C1.94601 17.3083 1.66975 17.0321 1.66975 16.6926V5.7365L9.45553 11.9129C9.89301 12.2599 10.4415 12.4511 11 12.4511C11.5585 12.4511 12.107 12.26 12.5445 11.9129L20.3302 5.7365V16.6926C20.3302 17.0321 20.054 17.3083 19.7145 17.3083ZM1.70872 5.81718V16.6926C1.70872 17.0106 1.96749 17.2694 2.28557 17.2694H19.7145C20.0325 17.2694 20.2913 17.0106 20.2913 16.6926V5.81718L12.5687 11.9434C12.1244 12.2959 11.5673 12.49 11 12.49C10.4327 12.49 9.87562 12.2959 9.43133 11.9434L1.70872 5.81718ZM11 10.8213C10.8088 10.8213 10.6202 10.7552 10.469 10.6353L2.97666 4.69166H19.0233L11.5309 10.6353C11.3798 10.7552 11.1912 10.8213 11 10.8213ZM3.08848 4.73063L10.4932 10.6048C10.6375 10.7193 10.8175 10.7823 10.9999 10.7823C11.1824 10.7823 11.3623 10.7192 11.5067 10.6048L18.9114 4.73063H3.08848Z"/>
</svg>