<svg width="19" height="19" viewbox="0 0 19 19" xmlns="http://www.w3.org/2000/svg" fill="#9e9f9f">
    <path fill-rule="evenodd" clip-rule="evenodd" d="M12.2143 6.78575C12.2143 6.03649 11.9492 5.3968 11.4191 4.86666C10.889 4.33653 10.2493 4.07146 9.50001 4.07146C8.75076 4.07146 8.11106 4.33653 7.58093 4.86666C7.05079 5.3968 6.78573 6.03649 6.78573 6.78575C6.78573 7.535 7.05079 8.1747 7.58093 8.70483C8.11106 9.23497 8.75076 9.50003 9.50001 9.50003C10.2493 9.50003 10.889 9.23497 11.4191 8.70483C11.9492 8.1747 12.2143 7.535 12.2143 6.78575ZM14.9286 6.78575C14.9286 7.55621 14.812 8.18884 14.5787 8.68363L10.7193 16.8901C10.6062 17.1234 10.4383 17.3071 10.2157 17.4414C9.99304 17.5757 9.75448 17.6429 9.50001 17.6429C9.24555 17.6429 9.00699 17.5757 8.78433 17.4414C8.56168 17.3071 8.39733 17.1234 8.29131 16.8901L4.42133 8.68363C4.18807 8.18884 4.07144 7.55621 4.07144 6.78575C4.07144 5.28724 4.60158 4.00785 5.66184 2.94758C6.72211 1.88731 8.0015 1.35718 9.50001 1.35718C10.9985 1.35718 12.2779 1.88731 13.3382 2.94758C14.3984 4.00785 14.9286 5.28724 14.9286 6.78575Z"/>
</svg>