<svg width="16" height="17" viewbox="0 0 16 17" xmlns="http://www.w3.org/2000/svg" fill="#9e9f9f">
    <path fill-rule="evenodd" clip-rule="evenodd" d="M13.4041 11.2727C12.4257 10.4359 11.4328 9.92897 10.4664 10.7645L9.88929 11.2695C9.46708 11.6361 8.68208 13.349 5.64697 9.85755C2.6125 6.37053 4.41826 5.8276 4.84111 5.46417L5.42133 4.95853C6.38268 4.12106 6.01988 3.0668 5.32652 1.98157L4.9081 1.32424C4.21158 0.241535 3.45312 -0.469521 2.48925 0.366681L1.96844 0.821757C1.54244 1.13209 0.351652 2.14085 0.0628052 4.05722C-0.284822 6.35662 0.811785 8.98974 3.32418 11.8788C5.83343 14.7692 8.2902 16.221 10.6174 16.1957C12.5515 16.1749 13.7195 15.1371 14.0848 14.7597L14.6075 14.304C15.5689 13.4685 14.9716 12.6177 13.9926 11.779L13.4041 11.2727Z"/>
</svg>