<?xml version="1.0" encoding="utf-8"?><svg xmlns="http://www.w3.org/2000/svg" xmlns:xlink="http://www.w3.org/1999/xlink"><symbol fill="none" viewBox="0 0 24 15" id="arrow" xmlns="http://www.w3.org/2000/svg"><path d="M11.249.383a.5.5 0 01.766.643L1.088 14.049a.5.5 0 01-.766-.643L11.249.383z" fill="#888A8B"/><path d="M11.59 1.026a.5.5 0 01.765-.643l10.928 13.023a.5.5 0 11-.766.643L11.589 1.026z" fill="#888A8B"/></symbol><symbol viewBox="0 0 9 17" id="facebook" xmlns="http://www.w3.org/2000/svg"><path fill-rule="evenodd" clip-rule="evenodd" d="M8.427.003L6.327 0c-2.36 0-3.885 1.564-3.885 3.986v1.838H.33a.33.33 0 00-.33.33v2.663c0 .182.148.33.33.33h2.112v6.719c0 .182.148.33.33.33h2.755a.33.33 0 00.33-.33V9.147h2.47a.33.33 0 00.33-.33V6.154a.33.33 0 00-.33-.33h-2.47V4.266c0-.749.179-1.13 1.154-1.13h1.415a.33.33 0 00.33-.33V.334a.33.33 0 00-.33-.33z"/></symbol><symbol viewBox="0 0 17 17" id="instagram" xmlns="http://www.w3.org/2000/svg"><path fill-rule="evenodd" clip-rule="evenodd" d="M11.726 0H4.47A4.475 4.475 0 000 4.47v7.256a4.475 4.475 0 004.47 4.47h7.256a4.475 4.475 0 004.47-4.47V4.47A4.475 4.475 0 0011.726 0zm3.033 11.726a3.036 3.036 0 01-3.033 3.033H4.47a3.036 3.036 0 01-3.032-3.033V4.47A3.036 3.036 0 014.47 1.437h7.257A3.036 3.036 0 0114.76 4.47v7.256z"/><path fill-rule="evenodd" clip-rule="evenodd" d="M8.098 3.925a4.178 4.178 0 00-4.173 4.173 4.178 4.178 0 004.173 4.173 4.178 4.178 0 004.173-4.173 4.178 4.178 0 00-4.173-4.173zm0 6.91a2.74 2.74 0 01-2.736-2.737 2.74 2.74 0 012.736-2.736 2.74 2.74 0 012.736 2.736 2.74 2.74 0 01-2.736 2.736zm4.348-8.129a1.058 1.058 0 00-1.053 1.054c0 .277.113.55.309.746.195.195.467.308.744.308.278 0 .55-.113.746-.308a1.058 1.058 0 000-1.49 1.058 1.058 0 00-.746-.31z"/></symbol><symbol viewBox="0 0 22 22" id="mail" xmlns="http://www.w3.org/2000/svg"><path fill-rule="evenodd" clip-rule="evenodd" d="M19.715 3.041H2.285A2.269 2.269 0 00.02 5.308v11.385a2.269 2.269 0 002.267 2.266h17.428a2.269 2.269 0 002.267-2.266V5.308a2.269 2.269 0 00-2.267-2.267zm-.748 1.67l-7.448 5.91a.832.832 0 01-1.038 0L3.033 4.71h15.934zm1.344 11.982a.596.596 0 01-.597.596H2.286a.596.596 0 01-.597-.596V5.777l7.754 6.151c.441.35.994.543 1.557.543s1.116-.193 1.557-.543l7.754-6.151v10.916z"/><path fill-rule="evenodd" clip-rule="evenodd" d="M19.715 18.978H2.285A2.288 2.288 0 010 16.693V5.307a2.288 2.288 0 012.286-2.285h17.428A2.288 2.288 0 0122 5.307v11.386a2.288 2.288 0 01-2.285 2.285zM2.285 3.061A2.25 2.25 0 00.04 5.307v11.386a2.25 2.25 0 002.247 2.246h17.428a2.25 2.25 0 002.247-2.246V5.307a2.25 2.25 0 00-2.246-2.246H2.285zm17.43 14.247H2.285a.616.616 0 01-.615-.615V5.736l7.786 6.177c.437.347.986.538 1.544.538.559 0 1.107-.191 1.544-.538l7.786-6.176v10.956c0 .34-.276.615-.615.615zM1.709 5.818v10.875c0 .318.258.576.577.576h17.428a.578.578 0 00.577-.576V5.817l-7.722 6.126A2.534 2.534 0 0111 12.49a2.534 2.534 0 01-1.569-.547L1.71 5.817zM11 10.82a.859.859 0 01-.531-.186L2.977 4.692h16.046l-7.492 5.943a.858.858 0 01-.531.186zM3.088 4.73l7.405 5.874a.819.819 0 00.507.177.82.82 0 00.507-.177L18.91 4.73H3.088z"/></symbol><symbol viewBox="0 0 19 19" id="map-marker" xmlns="http://www.w3.org/2000/svg"><path fill-rule="evenodd" clip-rule="evenodd" d="M12.214 6.786c0-.75-.265-1.39-.795-1.92A2.615 2.615 0 009.5 4.072c-.75 0-1.389.266-1.92.796-.53.53-.794 1.17-.794 1.919 0 .749.265 1.389.795 1.919S8.75 9.5 9.5 9.5s1.389-.265 1.92-.795c.53-.53.794-1.17.794-1.92zm2.715 0c0 .77-.117 1.403-.35 1.898l-3.86 8.206a1.362 1.362 0 01-1.22.753c-.253 0-.492-.067-.715-.202a1.22 1.22 0 01-.493-.55l-3.87-8.207c-.233-.495-.35-1.128-.35-1.898 0-1.499.53-2.778 1.59-3.838 1.061-1.06 2.34-1.59 3.839-1.59 1.498 0 2.778.53 3.838 1.59s1.59 2.34 1.59 3.838z"/></symbol><symbol viewBox="0 0 16 17" id="phone" xmlns="http://www.w3.org/2000/svg"><path fill-rule="evenodd" clip-rule="evenodd" d="M13.404 11.273c-.978-.837-1.971-1.344-2.938-.508l-.577.505c-.422.366-1.207 2.079-4.242-1.412-3.035-3.487-1.229-4.03-.806-4.394l.58-.505c.962-.838.599-1.892-.094-2.977l-.419-.658C4.212.242 3.453-.47 2.49.367l-.52.455C1.541 1.132.351 2.14.062 4.057c-.348 2.3.749 4.933 3.261 7.822 2.51 2.89 4.966 4.342 7.293 4.317 1.934-.021 3.102-1.059 3.468-1.436l.522-.456c.962-.835.365-1.686-.614-2.525l-.589-.506z"/></symbol><symbol viewBox="0 0 22 13" id="vk" xmlns="http://www.w3.org/2000/svg"><path fill-rule="evenodd" clip-rule="evenodd" d="M21.48 11.167a1.484 1.484 0 00-.073-.14c-.375-.678-1.09-1.51-2.147-2.495l-.023-.022-.011-.011-.011-.012h-.012c-.48-.459-.783-.767-.91-.925-.233-.301-.285-.606-.158-.914.09-.234.428-.726 1.012-1.478.308-.4.551-.719.73-.96 1.298-1.73 1.86-2.836 1.687-3.317L21.497.78c-.045-.067-.16-.13-.348-.186-.188-.056-.427-.066-.72-.028l-3.238.022a.419.419 0 00-.225.006l-.146.034-.056.028-.045.034a.5.5 0 00-.124.119.773.773 0 00-.112.197c-.352.91-.753 1.757-1.203 2.539-.277.467-.532.87-.765 1.213a5.832 5.832 0 01-.584.756c-.158.162-.3.291-.428.39-.127.097-.225.139-.292.123a8.189 8.189 0 01-.191-.045.75.75 0 01-.253-.276 1.241 1.241 0 01-.13-.44 4.9 4.9 0 01-.039-.457 9.585 9.585 0 01.006-.542c.008-.233.011-.391.011-.474 0-.286.006-.596.017-.93.011-.336.02-.6.028-.796.008-.196.011-.403.011-.621 0-.218-.013-.39-.04-.513a1.756 1.756 0 00-.117-.362.607.607 0 00-.23-.27 1.297 1.297 0 00-.377-.153C11.51.058 11.004.01 10.39.002 8.995-.013 8.1.077 7.702.272c-.158.083-.3.196-.427.339-.135.165-.154.256-.057.27.45.068.769.23.956.486l.068.135c.052.098.104.271.157.52.052.248.086.522.101.823.038.55.038 1.02 0 1.41-.037.392-.073.696-.107.915a1.835 1.835 0 01-.151.53 2.242 2.242 0 01-.135.248.194.194 0 01-.057.056.84.84 0 01-.303.057c-.105 0-.233-.053-.383-.158a2.701 2.701 0 01-.466-.434 5.809 5.809 0 01-.545-.773 13.504 13.504 0 01-.63-1.174l-.18-.327c-.112-.21-.266-.517-.46-.92a17.759 17.759 0 01-.518-1.168.744.744 0 00-.27-.36L4.24.711a.769.769 0 00-.18-.096A1.19 1.19 0 003.8.543L.72.565C.405.565.19.637.079.78L.034.848a.366.366 0 00-.034.18c0 .083.022.185.067.305.45 1.06.94 2.084 1.468 3.07.528.985.987 1.778 1.377 2.38.39.602.787 1.17 1.192 1.704.405.534.673.876.804 1.027.13.15.234.263.309.338l.281.27c.18.181.444.398.793.65.348.252.734.5 1.158.745a6.27 6.27 0 001.478.598c.563.154 1.11.216 1.642.186h1.293c.262-.023.46-.106.596-.248l.045-.057a.749.749 0 00.084-.209 1.15 1.15 0 00.04-.31 3.734 3.734 0 01.072-.874c.056-.26.12-.455.191-.587a1.442 1.442 0 01.434-.496.737.737 0 01.09-.04c.18-.06.39-.002.635.175.243.177.472.395.686.655.213.26.47.55.77.874.3.324.562.564.787.722l.224.136c.15.09.346.173.586.248.239.075.449.094.629.057l2.878-.046c.285 0 .506-.047.663-.14.158-.095.251-.198.282-.311a.876.876 0 00.005-.384 1.413 1.413 0 00-.079-.299z"/></symbol><symbol viewBox="0 0 14 17" id="youtube" xmlns="http://www.w3.org/2000/svg"><path fill-rule="evenodd" clip-rule="evenodd" d="M13.435 8.2a1.727 1.727 0 00-1.478-1.344c-1.695-.189-3.41-.19-5.119-.189-1.708 0-3.424 0-5.12.19-.715.08-1.31.616-1.477 1.343C.003 9.235 0 10.365 0 11.432c0 1.066 0 2.196.238 3.231a1.727 1.727 0 001.478 1.343c1.695.19 3.41.19 5.12.19 1.708 0 3.423 0 5.119-.19a1.727 1.727 0 001.477-1.343c.239-1.035.24-2.165.24-3.232 0-1.066.001-2.196-.237-3.231zM3.9 9.002h-.99v5.258h-.919V9.002H1.02v-.861H3.9v.861zm2.496 5.258H5.57v-.497c-.328.377-.64.56-.944.56-.266 0-.45-.108-.532-.339-.045-.138-.073-.356-.073-.678V9.701h.826v3.357c0 .193 0 .294.008.321.02.128.082.193.193.193.166 0 .339-.127.522-.386V9.7h.827v4.56zm3.139-1.368c0 .421-.028.725-.084.919-.11.339-.331.512-.66.512-.294 0-.577-.163-.854-.504v.442h-.826V8.14h.826v1.998c.267-.328.55-.494.854-.494.329 0 .55.173.66.514.056.184.084.485.084.917v1.816zm3.118-.76h-1.652v.807c0 .422.138.633.422.633.203 0 .322-.11.369-.331.007-.045.018-.229.018-.56h.843v.12c0 .267-.01.45-.018.533a1.177 1.177 0 01-.192.495c-.23.331-.568.494-1 .494-.432 0-.761-.155-1-.467-.175-.228-.265-.587-.265-1.072v-1.597c0-.487.08-.844.255-1.074.239-.312.568-.468.99-.468.415 0 .743.156.975.468.173.23.255.587.255 1.074v.944z"/><path fill-rule="evenodd" clip-rule="evenodd" d="M11.415 10.389c-.276 0-.414.21-.414.632v.422h.826v-.422c0-.421-.138-.632-.412-.632zm-3.065 0c-.137 0-.275.064-.413.2v2.78c.138.138.276.203.412.203.239 0 .36-.203.36-.615v-1.946c0-.411-.121-.622-.36-.622zm.46-4.142c.305 0 .622-.185.955-.566v.502h.835V1.575h-.835v3.522c-.185.262-.36.391-.528.391-.112 0-.177-.066-.196-.195-.01-.028-.01-.13-.01-.325V1.575H8.2V5.22c0 .326.028.546.074.685.084.234.269.343.538.343zM2.998 3.68v2.503h.926V3.68L5.038 0H4.1l-.63 2.428L2.812 0h-.974c.195.573.398 1.15.593 1.723.298.862.483 1.512.567 1.956zm3.281 2.567c.418 0 .743-.158.974-.472.175-.23.259-.594.259-1.084V3.078c0-.493-.084-.853-.26-1.086-.23-.315-.555-.472-.973-.472-.417 0-.741.157-.973.472-.177.233-.26.593-.26 1.086V4.69c0 .49.083.853.26 1.084.231.314.556.472.973.472zM5.88 2.91c0-.426.13-.639.399-.639s.398.213.398.64v1.938c0 .426-.13.64-.398.64-.27 0-.399-.214-.399-.64V2.91z"/></symbol></svg>