<?xml version="1.0" encoding="utf-8"?><svg xmlns="http://www.w3.org/2000/svg" xmlns:xlink="http://www.w3.org/1999/xlink"><symbol fill="none" viewBox="0 0 24 15" id="arrow" xmlns="http://www.w3.org/2000/svg"><path d="M11.249.383a.5.5 0 01.766.643L1.088 14.049a.5.5 0 01-.766-.643L11.249.383z" fill="#888A8B"/><path d="M11.59 1.026a.5.5 0 01.765-.643l10.928 13.023a.5.5 0 11-.766.643L11.589 1.026z" fill="#888A8B"/></symbol><symbol viewBox="0 0 9 17" id="facebook" xmlns="http://www.w3.org/2000/svg"><path fill-rule="evenodd" clip-rule="evenodd" d="M8.427.003L6.327 0c-2.36 0-3.885 1.564-3.885 3.986v1.838H.33a.33.33 0 00-.33.33v2.663c0 .182.148.33.33.33h2.112v6.719c0 .182.148.33.33.33h2.755a.33.33 0 00.33-.33V9.147h2.47a.33.33 0 00.33-.33V6.154a.33.33 0 00-.33-.33h-2.47V4.266c0-.749.179-1.13 1.154-1.13h1.415a.33.33 0 00.33-.33V.334a.33.33 0 00-.33-.33z"/></symbol><symbol viewBox="0 0 17 17" id="instagram" xmlns="http://www.w3.org/2000/svg"><path fill-rule="evenodd" clip-rule="evenodd" d="M11.726 0H4.47A4.475 4.475 0 000 4.47v7.256a4.475 4.475 0 004.47 4.47h7.256a4.475 4.475 0 004.47-4.47V4.47A4.475 4.475 0 0011.726 0zm3.033 11.726a3.036 3.036 0 01-3.033 3.033H4.47a3.036 3.036 0 01-3.032-3.033V4.47A3.036 3.036 0 014.47 1.437h7.257A3.036 3.036 0 0114.76 4.47v7.256z"/><path fill-rule="evenodd" clip-rule="evenodd" d="M8.098 3.925a4.178 4.178 0 00-4.173 4.173 4.178 4.178 0 004.173 4.173 4.178 4.178 0 004.173-4.173 4.178 4.178 0 00-4.173-4.173zm0 6.91a2.74 2.74 0 01-2.736-2.737 2.74 2.74 0 012.736-2.736 2.74 2.74 0 012.736 2.736 2.74 2.74 0 01-2.736 2.736zm4.348-8.129a1.058 1.058 0 00-1.053 1.054c0 .277.113.55.309.746.195.195.467.308.744.308.278 0 .55-.113.746-.308a1.058 1.058 0 000-1.49 1.058 1.058 0 00-.746-.31z"/></symbol><symbol fill="none" viewBox="0 0 154 36" id="logo" xmlns="http://www.w3.org/2000/svg"><path d="M10.395 17.547c0-.305-.055-.59-.165-.856a1.891 1.891 0 00-.539-.738c-.25-.234-.582-.445-.996-.633a8.913 8.913 0 00-1.523-.539 14.671 14.671 0 01-2.133-.761 7.788 7.788 0 01-1.781-1.102c-.516-.43-.93-.93-1.242-1.5-.305-.57-.457-1.227-.457-1.969 0-.719.152-1.37.457-1.957a4.482 4.482 0 011.265-1.5 5.836 5.836 0 011.91-.949 8.073 8.073 0 012.391-.34c.89 0 1.703.129 2.438.387a5.653 5.653 0 011.91 1.09 4.88 4.88 0 011.242 1.652c.297.64.445 1.344.445 2.11h-3.21a3.246 3.246 0 00-.212-1.055 2.089 2.089 0 00-.539-.82 2.309 2.309 0 00-.89-.54c-.352-.132-.766-.199-1.243-.199a3.86 3.86 0 00-1.171.164c-.336.102-.622.25-.856.446a1.894 1.894 0 00-.539.68 2.01 2.01 0 00-.176.843c0 .32.078.61.235.867.164.258.398.492.703.703.304.203.672.39 1.101.563.438.172.93.332 1.477.48.781.227 1.5.504 2.156.832a6.746 6.746 0 011.688 1.172c.476.445.843.957 1.101 1.535.266.57.399 1.207.399 1.91 0 .75-.153 1.418-.457 2.004a4.333 4.333 0 01-1.243 1.477c-.53.398-1.164.703-1.898.914a8.99 8.99 0 01-2.402.305c-.54 0-1.079-.051-1.618-.153a7.367 7.367 0 01-1.535-.445 6.813 6.813 0 01-1.36-.762 5.286 5.286 0 01-1.1-1.066 5.065 5.065 0 01-.727-1.383 5.387 5.387 0 01-.258-1.71h3.234c.016.515.106.956.27 1.323a2.4 2.4 0 00.68.903c.296.234.648.406 1.054.515.414.11.867.164 1.36.164.437 0 .824-.05 1.16-.152.344-.102.633-.242.867-.422.234-.18.414-.394.539-.644.125-.258.188-.54.188-.844zm12.985.89h-5.121L17.25 22h-3.469l5.59-17.063h2.988L27.845 22h-3.47l-.995-3.563zm-4.313-2.8h3.54L20.86 9.355l-1.793 6.282zM28.373 22V4.937h4.418c1.133 0 2.156.196 3.07.586a6.674 6.674 0 012.356 1.618 7.026 7.026 0 011.511 2.472c.36.961.54 2.016.54 3.164v1.407c0 1.148-.18 2.203-.54 3.164a7.362 7.362 0 01-1.488 2.472 6.708 6.708 0 01-2.308 1.606c-.899.383-1.891.574-2.977.574h-4.582zm3.316-14.39v11.742h1.266c.617 0 1.168-.118 1.652-.352a3.332 3.332 0 001.242-1.02c.344-.445.606-.984.786-1.617.18-.64.27-1.367.27-2.18v-1.43c0-.765-.09-1.46-.27-2.085a4.592 4.592 0 00-.785-1.629 3.525 3.525 0 00-1.29-1.055c-.507-.25-1.097-.375-1.77-.375h-1.1zm22.056 9.046c-.055.86-.242 1.633-.563 2.32a5.335 5.335 0 01-1.265 1.758 5.616 5.616 0 01-1.899 1.125c-.734.258-1.546.387-2.437.387-1.008 0-1.902-.183-2.684-.55a5.575 5.575 0 01-1.968-1.56c-.532-.671-.938-1.476-1.22-2.413-.28-.938-.421-1.97-.421-3.094v-2.297c0-1.133.148-2.168.445-3.105.297-.938.719-1.743 1.266-2.415a5.649 5.649 0 011.98-1.558c.782-.375 1.657-.563 2.625-.563.938 0 1.77.133 2.496.399.735.265 1.36.644 1.875 1.137a5.26 5.26 0 011.22 1.804c.296.711.484 1.512.562 2.403h-3.282a5.387 5.387 0 00-.234-1.336 2.382 2.382 0 00-.527-.95 2.038 2.038 0 00-.867-.574c-.344-.133-.758-.199-1.243-.199-.507 0-.949.11-1.324.328-.375.219-.687.54-.937.961-.243.422-.422.941-.54 1.559a11.133 11.133 0 00-.175 2.086v2.32c0 1.68.234 2.922.703 3.726.476.805 1.226 1.207 2.25 1.207.86 0 1.539-.226 2.039-.68.5-.46.777-1.202.832-2.226h3.293zm12.106-2.133h-7.007v4.817h8.191V22H55.539V4.937h11.46v2.684h-8.155v4.3h7.007v2.602zM80.055 22h-3.28l-4.747-11.004V22h-3.316V4.937h3.316l4.711 10.957.012-10.957h3.304V22zM94.8 7.621h-5.262V22h-3.305V7.621h-5.191V4.937H94.8v2.684zm11.415 6.902h-7.008v4.817h8.191V22H95.901V4.937h11.461v2.684h-8.156v4.3h7.008v2.602zm8.743 1.102h-2.496V22h-3.293V4.937h5.718c.946 0 1.801.114 2.567.34.765.22 1.418.543 1.957.973.547.43.965.965 1.254 1.605.297.641.445 1.383.445 2.227 0 .61-.074 1.16-.223 1.652a4.389 4.389 0 01-1.593 2.32c-.375.29-.797.54-1.266.75l3.668 7.044V22h-3.527l-3.211-6.375zm-2.496-2.672h2.437c.93 0 1.645-.234 2.145-.703.507-.477.761-1.125.761-1.945 0-.852-.246-1.512-.738-1.98-.492-.477-1.219-.716-2.18-.716h-2.425v5.344z" fill="#69AF07"/><path d="M122.598 22V4.937h5.731c.929 0 1.773.094 2.531.282.766.187 1.418.472 1.957.855.539.383.953.867 1.242 1.453.297.586.446 1.278.446 2.075a3.85 3.85 0 01-.645 2.144c-.414.633-1.027 1.113-1.84 1.441.492.126.918.313 1.278.563.359.25.656.547.89.89.242.337.418.708.527 1.114.118.398.176.812.176 1.242 0 .82-.14 1.543-.422 2.168a4.191 4.191 0 01-1.207 1.57c-.523.422-1.16.739-1.91.95-.75.21-1.594.316-2.531.316h-6.223zm3.305-7.523v4.863h2.93c.898-.008 1.582-.227 2.05-.656.477-.438.715-1.008.715-1.711.008-.782-.203-1.391-.633-1.828-.429-.438-1.093-.66-1.992-.668h-3.07zm0-2.38h2.449c.914-.007 1.617-.199 2.11-.574.492-.375.742-.925.75-1.652 0-.797-.247-1.367-.739-1.71-.492-.352-1.203-.532-2.133-.54h-2.437v4.477zm15.997.704l3.363-7.864h3.621l-5.367 11.157-.012 5.906h-3.281l-.012-6.047-5.285-11.015h3.61L141.9 12.8zM7.617 33H6.141v-7.336H2.385V33H.908v-8.531h6.71V33zm5.134-6.34h1.417V33h-1.417v-4.23L10.266 33H8.848v-6.34h1.418v4.23l2.485-4.23zm7.441 1.131h-2.056V33h-1.424v-5.209h-2.033v-1.13h5.513v1.13zm.03 1.98c0-.62.123-1.18.37-1.675a2.67 2.67 0 011.036-1.149c.446-.27.957-.404 1.535-.404.856 0 1.55.275 2.08.826.536.55.825 1.281.868 2.192l.006.334c0 .625-.122 1.183-.364 1.675a2.64 2.64 0 01-1.03 1.143c-.446.27-.962.404-1.548.404-.894 0-1.611-.297-2.15-.89-.535-.598-.803-1.393-.803-2.385v-.07zm1.424.123c0 .653.135 1.165.404 1.536.27.367.645.55 1.125.55s.854-.187 1.12-.562c.269-.375.404-.924.404-1.646 0-.641-.139-1.149-.416-1.524a1.312 1.312 0 00-1.12-.563c-.464 0-.834.186-1.107.557-.273.367-.41.918-.41 1.652zm8.96 1.354l1.874-4.588h1.782V33h-1.424v-4.195L31.092 33h-.967l-1.752-4.219V33h-1.424v-6.34h1.793l1.863 4.588zM40.753 33H39.33v-2.56h-2.467V33H35.44v-6.34h1.424v2.643h2.467V26.66h1.423V33zm4.999-6.34h1.418V33h-1.418v-4.23L43.268 33H41.85v-6.34h1.418v4.23l2.485-4.23zm4.705 3.832h-.72V33h-1.424v-6.34h1.424v2.531h.627l1.752-2.53h1.757l-2.29 3.034L54.067 33h-1.852l-1.758-2.508zm9.025 1.488c.355 0 .65-.103.885-.31a1.06 1.06 0 00.374-.768h1.342a2.107 2.107 0 01-.369 1.108c-.23.34-.543.61-.937.808-.395.2-.82.3-1.278.3-.886 0-1.59-.288-2.11-.862-.519-.574-.778-1.367-.778-2.379v-.146c0-.965.258-1.737.773-2.315.516-.582 1.219-.873 2.11-.873.753 0 1.367.22 1.84.662.476.438.726 1.014.75 1.729h-1.343a1.297 1.297 0 00-.374-.897c-.231-.234-.526-.351-.885-.351-.461 0-.817.168-1.067.503-.25.332-.377.838-.38 1.518v.229c0 .687.122 1.2.369 1.54.25.337.609.505 1.078.505zm5.989 1.137c-.903 0-1.635-.283-2.198-.85-.558-.57-.838-1.328-.838-2.273v-.176c0-.633.121-1.197.364-1.693.246-.5.59-.889 1.03-1.166a2.718 2.718 0 011.477-.416c.864 0 1.53.275 1.998.826.473.55.71 1.33.71 2.338v.574h-4.143c.043.524.217.938.521 1.242.309.305.696.457 1.16.457.653 0 1.184-.263 1.594-.79l.768.732a2.58 2.58 0 01-1.02.885c-.422.207-.896.31-1.423.31zm-.17-5.431c-.391 0-.708.136-.95.41-.238.273-.39.654-.457 1.142h2.713v-.105c-.031-.477-.158-.836-.38-1.078-.223-.246-.532-.37-.926-.37zm7.107 3.562l1.875-4.588h1.782V33h-1.424v-4.195L72.896 33h-.967l-1.752-4.219V33h-1.424v-6.34h1.793l1.863 4.588zm6.311-2.572h1.395c.52 0 .973.09 1.36.27.386.179.68.431.878.755.203.324.305.701.305 1.131 0 .652-.23 1.176-.691 1.57-.461.395-1.075.594-1.84.598h-2.83v-6.34h1.424v2.016zm0 1.142v2.045h1.39c.347 0 .62-.086.82-.258.203-.175.304-.423.304-.744 0-.32-.1-.572-.299-.756-.195-.187-.46-.283-.797-.287H78.72zm8.556-3.158h1.418V33h-1.418v-4.23L84.79 33h-1.418v-6.34h1.418v4.23l2.485-4.23zM99.124 33h-1.476v-7.336h-3.756V33h-1.477v-8.531h6.71V33zm3.393-2.04l1.289-4.3h1.518l-2.52 7.3c-.386 1.067-1.043 1.6-1.968 1.6-.207 0-.436-.035-.686-.105v-1.102l.27.018c.359 0 .629-.066.808-.2.184-.128.328-.347.434-.655l.205-.545-2.227-6.31h1.535l1.342 4.3zm5.427-2.214l1.207-2.086h1.582l-1.94 3.123L110.797 33h-1.57l-1.266-2.168-1.26 2.168h-1.582l2.004-3.217-1.933-3.123h1.57l1.184 2.086zM115.01 33c-.062-.121-.117-.318-.164-.592a2.215 2.215 0 01-1.664.71c-.636 0-1.156-.183-1.558-.546a1.742 1.742 0 01-.604-1.347c0-.676.25-1.194.75-1.553.504-.363 1.223-.545 2.156-.545h.873v-.416c0-.328-.091-.59-.275-.785-.184-.2-.463-.299-.838-.299-.324 0-.59.082-.797.246a.745.745 0 00-.31.615h-1.424c0-.347.115-.672.346-.972.23-.305.543-.543.937-.715a3.326 3.326 0 011.33-.258c.742 0 1.334.188 1.776.563.441.37.668.894.679 1.57v2.86c0 .57.08 1.024.241 1.364v.1h-1.454zm-1.564-1.025c.281 0 .545-.069.791-.206.25-.136.437-.32.562-.55v-1.196h-.767c-.527 0-.924.092-1.19.276a.893.893 0 00-.398.78c0 .273.09.491.27.655.183.16.427.24.732.24zm9.176-5.315V33h-1.424v-5.191h-1.793l-.117 2.209c-.074 1.062-.279 1.826-.615 2.29-.332.462-.842.692-1.529.692h-.44l-.006-1.184.293-.029c.313-.043.539-.232.68-.568.145-.34.236-.957.275-1.852l.118-2.707h4.558zm2.567 2.016h1.395c.519 0 .972.09 1.359.27.387.179.68.431.879.755.203.324.305.701.305 1.131 0 .652-.231 1.176-.692 1.57-.461.395-1.074.594-1.84.598h-2.83v-6.34h1.424v2.016zm0 1.142v2.045h1.389c.347 0 .621-.086.82-.258.203-.175.305-.423.305-.744 0-.32-.1-.572-.299-.756-.195-.187-.461-.283-.797-.287h-1.418zm7.202 2.162c.355 0 .65-.103.884-.31.235-.207.36-.463.375-.768h1.342a2.097 2.097 0 01-.369 1.108c-.23.34-.543.61-.937.808-.395.2-.821.3-1.278.3-.886 0-1.59-.288-2.109-.862-.52-.574-.779-1.367-.779-2.379v-.146c0-.965.257-1.737.773-2.315.516-.582 1.219-.873 2.109-.873.754 0 1.368.22 1.84.662.477.438.727 1.014.75 1.729h-1.342a1.292 1.292 0 00-.375-.897c-.23-.234-.525-.351-.884-.351-.461 0-.817.168-1.067.503-.25.332-.377.838-.381 1.518v.229c0 .687.123 1.2.37 1.54.25.337.609.505 1.078.505zm5.449-1.488h-.72V33h-1.424v-6.34h1.424v2.531h.627l1.752-2.53h1.757l-2.291 3.034L141.45 33h-1.852l-1.758-2.508zm7.87-3.832h1.418V33h-1.418v-4.23L143.226 33h-1.418v-6.34h1.418v4.23l2.484-4.23zm4.729 2.086l1.207-2.086h1.582l-1.939 3.123L153.292 33h-1.57l-1.265-2.168-1.26 2.168h-1.582l2.004-3.217-1.934-3.123h1.57l1.184 2.086z" fill="#483B33"/></symbol><symbol viewBox="0 0 22 22" id="mail" xmlns="http://www.w3.org/2000/svg"><path fill-rule="evenodd" clip-rule="evenodd" d="M19.715 3.041H2.285A2.269 2.269 0 00.02 5.308v11.385a2.269 2.269 0 002.267 2.266h17.428a2.269 2.269 0 002.267-2.266V5.308a2.269 2.269 0 00-2.267-2.267zm-.748 1.67l-7.448 5.91a.832.832 0 01-1.038 0L3.033 4.71h15.934zm1.344 11.982a.596.596 0 01-.597.596H2.286a.596.596 0 01-.597-.596V5.777l7.754 6.151c.441.35.994.543 1.557.543s1.116-.193 1.557-.543l7.754-6.151v10.916z"/><path fill-rule="evenodd" clip-rule="evenodd" d="M19.715 18.978H2.285A2.288 2.288 0 010 16.693V5.307a2.288 2.288 0 012.286-2.285h17.428A2.288 2.288 0 0122 5.307v11.386a2.288 2.288 0 01-2.285 2.285zM2.285 3.061A2.25 2.25 0 00.04 5.307v11.386a2.25 2.25 0 002.247 2.246h17.428a2.25 2.25 0 002.247-2.246V5.307a2.25 2.25 0 00-2.246-2.246H2.285zm17.43 14.247H2.285a.616.616 0 01-.615-.615V5.736l7.786 6.177c.437.347.986.538 1.544.538.559 0 1.107-.191 1.544-.538l7.786-6.176v10.956c0 .34-.276.615-.615.615zM1.709 5.818v10.875c0 .318.258.576.577.576h17.428a.578.578 0 00.577-.576V5.817l-7.722 6.126A2.534 2.534 0 0111 12.49a2.534 2.534 0 01-1.569-.547L1.71 5.817zM11 10.82a.859.859 0 01-.531-.186L2.977 4.692h16.046l-7.492 5.943a.858.858 0 01-.531.186zM3.088 4.73l7.405 5.874a.819.819 0 00.507.177.82.82 0 00.507-.177L18.91 4.73H3.088z"/></symbol><symbol viewBox="0 0 19 19" id="map-marker" xmlns="http://www.w3.org/2000/svg"><path fill-rule="evenodd" clip-rule="evenodd" d="M12.214 6.786c0-.75-.265-1.39-.795-1.92A2.615 2.615 0 009.5 4.072c-.75 0-1.389.266-1.92.796-.53.53-.794 1.17-.794 1.919 0 .749.265 1.389.795 1.919S8.75 9.5 9.5 9.5s1.389-.265 1.92-.795c.53-.53.794-1.17.794-1.92zm2.715 0c0 .77-.117 1.403-.35 1.898l-3.86 8.206a1.362 1.362 0 01-1.22.753c-.253 0-.492-.067-.715-.202a1.22 1.22 0 01-.493-.55l-3.87-8.207c-.233-.495-.35-1.128-.35-1.898 0-1.499.53-2.778 1.59-3.838 1.061-1.06 2.34-1.59 3.839-1.59 1.498 0 2.778.53 3.838 1.59s1.59 2.34 1.59 3.838z"/></symbol><symbol viewBox="0 0 16 17" id="phone" xmlns="http://www.w3.org/2000/svg"><path fill-rule="evenodd" clip-rule="evenodd" d="M13.404 11.273c-.978-.837-1.971-1.344-2.938-.508l-.577.505c-.422.366-1.207 2.079-4.242-1.412-3.035-3.487-1.229-4.03-.806-4.394l.58-.505c.962-.838.599-1.892-.094-2.977l-.419-.658C4.212.242 3.453-.47 2.49.367l-.52.455C1.541 1.132.351 2.14.062 4.057c-.348 2.3.749 4.933 3.261 7.822 2.51 2.89 4.966 4.342 7.293 4.317 1.934-.021 3.102-1.059 3.468-1.436l.522-.456c.962-.835.365-1.686-.614-2.525l-.589-.506z"/></symbol><symbol viewBox="0 0 22 13" id="vk" xmlns="http://www.w3.org/2000/svg"><path fill-rule="evenodd" clip-rule="evenodd" d="M21.48 11.167a1.484 1.484 0 00-.073-.14c-.375-.678-1.09-1.51-2.147-2.495l-.023-.022-.011-.011-.011-.012h-.012c-.48-.459-.783-.767-.91-.925-.233-.301-.285-.606-.158-.914.09-.234.428-.726 1.012-1.478.308-.4.551-.719.73-.96 1.298-1.73 1.86-2.836 1.687-3.317L21.497.78c-.045-.067-.16-.13-.348-.186-.188-.056-.427-.066-.72-.028l-3.238.022a.419.419 0 00-.225.006l-.146.034-.056.028-.045.034a.5.5 0 00-.124.119.773.773 0 00-.112.197c-.352.91-.753 1.757-1.203 2.539-.277.467-.532.87-.765 1.213a5.832 5.832 0 01-.584.756c-.158.162-.3.291-.428.39-.127.097-.225.139-.292.123a8.189 8.189 0 01-.191-.045.75.75 0 01-.253-.276 1.241 1.241 0 01-.13-.44 4.9 4.9 0 01-.039-.457 9.585 9.585 0 01.006-.542c.008-.233.011-.391.011-.474 0-.286.006-.596.017-.93.011-.336.02-.6.028-.796.008-.196.011-.403.011-.621 0-.218-.013-.39-.04-.513a1.756 1.756 0 00-.117-.362.607.607 0 00-.23-.27 1.297 1.297 0 00-.377-.153C11.51.058 11.004.01 10.39.002 8.995-.013 8.1.077 7.702.272c-.158.083-.3.196-.427.339-.135.165-.154.256-.057.27.45.068.769.23.956.486l.068.135c.052.098.104.271.157.52.052.248.086.522.101.823.038.55.038 1.02 0 1.41-.037.392-.073.696-.107.915a1.835 1.835 0 01-.151.53 2.242 2.242 0 01-.135.248.194.194 0 01-.057.056.84.84 0 01-.303.057c-.105 0-.233-.053-.383-.158a2.701 2.701 0 01-.466-.434 5.809 5.809 0 01-.545-.773 13.504 13.504 0 01-.63-1.174l-.18-.327c-.112-.21-.266-.517-.46-.92a17.759 17.759 0 01-.518-1.168.744.744 0 00-.27-.36L4.24.711a.769.769 0 00-.18-.096A1.19 1.19 0 003.8.543L.72.565C.405.565.19.637.079.78L.034.848a.366.366 0 00-.034.18c0 .083.022.185.067.305.45 1.06.94 2.084 1.468 3.07.528.985.987 1.778 1.377 2.38.39.602.787 1.17 1.192 1.704.405.534.673.876.804 1.027.13.15.234.263.309.338l.281.27c.18.181.444.398.793.65.348.252.734.5 1.158.745a6.27 6.27 0 001.478.598c.563.154 1.11.216 1.642.186h1.293c.262-.023.46-.106.596-.248l.045-.057a.749.749 0 00.084-.209 1.15 1.15 0 00.04-.31 3.734 3.734 0 01.072-.874c.056-.26.12-.455.191-.587a1.442 1.442 0 01.434-.496.737.737 0 01.09-.04c.18-.06.39-.002.635.175.243.177.472.395.686.655.213.26.47.55.77.874.3.324.562.564.787.722l.224.136c.15.09.346.173.586.248.239.075.449.094.629.057l2.878-.046c.285 0 .506-.047.663-.14.158-.095.251-.198.282-.311a.876.876 0 00.005-.384 1.413 1.413 0 00-.079-.299z"/></symbol><symbol viewBox="0 0 14 17" id="youtube" xmlns="http://www.w3.org/2000/svg"><path fill-rule="evenodd" clip-rule="evenodd" d="M13.435 8.2a1.727 1.727 0 00-1.478-1.344c-1.695-.189-3.41-.19-5.119-.189-1.708 0-3.424 0-5.12.19-.715.08-1.31.616-1.477 1.343C.003 9.235 0 10.365 0 11.432c0 1.066 0 2.196.238 3.231a1.727 1.727 0 001.478 1.343c1.695.19 3.41.19 5.12.19 1.708 0 3.423 0 5.119-.19a1.727 1.727 0 001.477-1.343c.239-1.035.24-2.165.24-3.232 0-1.066.001-2.196-.237-3.231zM3.9 9.002h-.99v5.258h-.919V9.002H1.02v-.861H3.9v.861zm2.496 5.258H5.57v-.497c-.328.377-.64.56-.944.56-.266 0-.45-.108-.532-.339-.045-.138-.073-.356-.073-.678V9.701h.826v3.357c0 .193 0 .294.008.321.02.128.082.193.193.193.166 0 .339-.127.522-.386V9.7h.827v4.56zm3.139-1.368c0 .421-.028.725-.084.919-.11.339-.331.512-.66.512-.294 0-.577-.163-.854-.504v.442h-.826V8.14h.826v1.998c.267-.328.55-.494.854-.494.329 0 .55.173.66.514.056.184.084.485.084.917v1.816zm3.118-.76h-1.652v.807c0 .422.138.633.422.633.203 0 .322-.11.369-.331.007-.045.018-.229.018-.56h.843v.12c0 .267-.01.45-.018.533a1.177 1.177 0 01-.192.495c-.23.331-.568.494-1 .494-.432 0-.761-.155-1-.467-.175-.228-.265-.587-.265-1.072v-1.597c0-.487.08-.844.255-1.074.239-.312.568-.468.99-.468.415 0 .743.156.975.468.173.23.255.587.255 1.074v.944z"/><path fill-rule="evenodd" clip-rule="evenodd" d="M11.415 10.389c-.276 0-.414.21-.414.632v.422h.826v-.422c0-.421-.138-.632-.412-.632zm-3.065 0c-.137 0-.275.064-.413.2v2.78c.138.138.276.203.412.203.239 0 .36-.203.36-.615v-1.946c0-.411-.121-.622-.36-.622zm.46-4.142c.305 0 .622-.185.955-.566v.502h.835V1.575h-.835v3.522c-.185.262-.36.391-.528.391-.112 0-.177-.066-.196-.195-.01-.028-.01-.13-.01-.325V1.575H8.2V5.22c0 .326.028.546.074.685.084.234.269.343.538.343zM2.998 3.68v2.503h.926V3.68L5.038 0H4.1l-.63 2.428L2.812 0h-.974c.195.573.398 1.15.593 1.723.298.862.483 1.512.567 1.956zm3.281 2.567c.418 0 .743-.158.974-.472.175-.23.259-.594.259-1.084V3.078c0-.493-.084-.853-.26-1.086-.23-.315-.555-.472-.973-.472-.417 0-.741.157-.973.472-.177.233-.26.593-.26 1.086V4.69c0 .49.083.853.26 1.084.231.314.556.472.973.472zM5.88 2.91c0-.426.13-.639.399-.639s.398.213.398.64v1.938c0 .426-.13.64-.398.64-.27 0-.399-.214-.399-.64V2.91z"/></symbol></svg>