<svg width="17" height="17" viewbox="0 0 17 17" xmlns="http://www.w3.org/2000/svg" fill="#fbfbfb">
    <path fill-rule="evenodd" clip-rule="evenodd" d="M11.7264 0H4.46943C2.00499 0 0 2.00509 0 4.46953V11.7265C0 14.1911 2.00499 16.1961 4.46943 16.1961H11.7264C14.1911 16.1961 16.1961 14.191 16.1961 11.7265V4.46953C16.1962 2.00509 14.1911 0 11.7264 0ZM14.7592 11.7265C14.7592 13.3987 13.3987 14.7591 11.7265 14.7591H4.46943C2.79735 14.7592 1.43699 13.3987 1.43699 11.7265V4.46953C1.43699 2.79744 2.79735 1.43699 4.46943 1.43699H11.7264C13.3986 1.43699 14.7591 2.79744 14.7591 4.46953V11.7265H14.7592Z"/>
    <path fill-rule="evenodd" clip-rule="evenodd" d="M8.09803 3.92493C5.79683 3.92493 3.92471 5.79704 3.92471 8.09825C3.92471 10.3994 5.79683 12.2714 8.09803 12.2714C10.3992 12.2714 12.2714 10.3994 12.2714 8.09825C12.2714 5.79704 10.3992 3.92493 8.09803 3.92493ZM8.09803 10.8343C6.58928 10.8343 5.36171 9.6069 5.36171 8.09815C5.36171 6.58931 6.58919 5.36183 8.09803 5.36183C9.60688 5.36183 10.8344 6.58931 10.8344 8.09815C10.8344 9.6069 9.60678 10.8343 8.09803 10.8343Z"/>
    <path fill-rule="evenodd" clip-rule="evenodd" d="M12.4464 2.70648C12.1695 2.70648 11.8975 2.81857 11.702 3.01496C11.5055 3.21039 11.3926 3.48246 11.3926 3.76028C11.3926 4.03723 11.5056 4.30921 11.702 4.5056C11.8974 4.70103 12.1695 4.81407 12.4464 4.81407C12.7242 4.81407 12.9953 4.70103 13.1917 4.5056C13.3881 4.30921 13.5002 4.03714 13.5002 3.76028C13.5002 3.48246 13.3881 3.21039 13.1917 3.01496C12.9963 2.81857 12.7242 2.70648 12.4464 2.70648Z"/>
</svg>