<svg width="14" height="17" viewbox="0 0 14 17" xmlns="http://www.w3.org/2000/svg" fill="#69af07">
    <path fill-rule="evenodd" clip-rule="evenodd" d="M13.4353 8.19966C13.268 7.47252 12.6732 6.93614 11.9573 6.8563C10.2624 6.66697 8.54614 6.66608 6.83824 6.66697C5.12962 6.66608 3.41368 6.66697 1.71828 6.8563C1.00275 6.93632 0.408326 7.4727 0.241144 8.19966C0.00287306 9.23508 1.52588e-05 10.3653 1.52588e-05 11.4315C1.52588e-05 12.4976 1.52801e-05 13.6277 0.238286 14.6631C0.405468 15.3901 0.999895 15.9265 1.71578 16.0065C3.41082 16.196 5.12676 16.1967 6.8352 16.196C8.54382 16.1969 10.2594 16.196 11.955 16.0065C12.6705 15.9265 13.2653 15.3901 13.4325 14.6631C13.6706 13.6277 13.6718 12.4976 13.6718 11.4315C13.6716 10.3652 13.6734 9.23508 13.4353 8.19966ZM3.89969 9.00217H2.91017V14.2602H1.99102V9.00217H1.01954V8.14089H3.89969V9.00217ZM6.39617 14.2604H5.56937V13.7629C5.2409 14.1395 4.92904 14.3231 4.62522 14.3231C4.3589 14.3231 4.17565 14.2152 4.09295 13.9842C4.04794 13.8463 4.02007 13.6281 4.02007 13.3062V9.70072H4.84616V13.0578C4.84616 13.2514 4.84616 13.3519 4.85366 13.3791C4.87349 13.5073 4.93618 13.5724 5.04692 13.5724C5.21268 13.5724 5.38593 13.4446 5.56919 13.1855V9.70072H6.39599L6.39617 14.2604ZM9.53495 12.8918C9.53495 13.3135 9.50655 13.6174 9.45136 13.8106C9.34097 14.1498 9.12003 14.3231 8.79138 14.3231C8.49738 14.3231 8.21374 14.1598 7.93743 13.8187V14.2606H7.11134V8.14089H7.93743V10.1394C8.20428 9.81093 8.48756 9.64482 8.79138 9.64482C9.12003 9.64482 9.34115 9.81789 9.45136 10.1592C9.50691 10.3427 9.53495 10.6442 9.53495 11.0759V12.8918ZM12.653 12.1311H11.0007V12.9393C11.0007 13.3614 11.1387 13.5722 11.4227 13.5722C11.6262 13.5722 11.7446 13.4616 11.7917 13.2408C11.7994 13.196 11.8103 13.0124 11.8103 12.6811H12.6532V12.8016C12.6532 13.0679 12.643 13.2514 12.6355 13.3339C12.6078 13.5168 12.5428 13.6827 12.4426 13.8288C12.2138 14.16 11.8748 14.3232 11.4433 14.3232C11.011 14.3232 10.682 14.1677 10.4432 13.8563C10.268 13.6281 10.178 13.2687 10.178 12.7841V11.1871C10.178 10.6997 10.2578 10.3432 10.4334 10.1128C10.672 9.80075 11.0008 9.64535 11.4229 9.64535C11.8375 9.64535 12.1661 9.80075 12.3976 10.1128C12.5707 10.3432 12.6534 10.6997 12.6534 11.1871V12.1311H12.653Z"/>
    <path fill-rule="evenodd" clip-rule="evenodd" d="M11.4154 10.3887C11.1393 10.3887 11.0008 10.5996 11.0008 11.0211V11.443H11.8269V11.0211C11.8267 10.5996 11.6887 10.3887 11.4154 10.3887Z"/>
    <path fill-rule="evenodd" clip-rule="evenodd" d="M8.3493 10.3887C8.2132 10.3887 8.07531 10.453 7.93724 10.5896V13.3687C8.07513 13.5069 8.2132 13.5723 8.3493 13.5723C8.58757 13.5723 8.70867 13.3687 8.70867 12.957V11.0108C8.70867 10.5996 8.58757 10.3887 8.3493 10.3887Z"/>
    <path fill-rule="evenodd" clip-rule="evenodd" d="M8.81084 6.24666C9.11538 6.24666 9.43224 6.06162 9.76464 5.68081V6.18343H10.5997V1.57538H9.76464V5.09728C9.5796 5.35877 9.4042 5.48809 9.23719 5.48809C9.12538 5.48809 9.05965 5.422 9.04143 5.29251C9.03125 5.26518 9.03125 5.16355 9.03125 4.96797V1.57538H8.19891V5.2191C8.19891 5.54453 8.22678 5.76476 8.27286 5.90426C8.35681 6.13771 8.54203 6.24666 8.81084 6.24666Z"/>
    <path fill-rule="evenodd" clip-rule="evenodd" d="M2.99787 3.67908V6.18343H3.9238V3.67908L5.03764 0H4.10134L3.46959 2.42825L2.81229 0H1.83795C2.03318 0.573171 2.23626 1.1492 2.43148 1.72291C2.72852 2.58525 2.91392 3.23541 2.99787 3.67908Z"/>
    <path fill-rule="evenodd" clip-rule="evenodd" d="M6.27864 6.24666C6.69695 6.24666 7.02203 6.08931 7.25262 5.77495C7.42784 5.54436 7.51179 5.18105 7.51179 4.6913V3.0777C7.51179 2.58508 7.42802 2.225 7.25262 1.99227C7.02203 1.67701 6.69713 1.51965 6.27864 1.51965C5.86247 1.51965 5.53757 1.67701 5.30645 1.99227C5.12908 2.225 5.04514 2.58508 5.04514 3.0777V4.6913C5.04514 5.18105 5.12908 5.54436 5.30645 5.77495C5.53739 6.08931 5.86247 6.24666 6.27864 6.24666ZM5.88015 2.91034C5.88015 2.48399 6.00947 2.27144 6.27864 2.27144C6.54781 2.27144 6.67677 2.48381 6.67677 2.91034V4.84865C6.67677 5.27501 6.54781 5.48827 6.27864 5.48827C6.00947 5.48827 5.88015 5.27501 5.88015 4.84865V2.91034Z"/>
</svg>