<?xml version="1.0" encoding="utf-8"?><svg width="19" height="19" xmlns="http://www.w3.org/2000/svg" fill="#9e9f9f" viewBox="0 0 19 19"><path fill-rule="evenodd" clip-rule="evenodd" d="M12.214 6.786c0-.75-.265-1.39-.795-1.92A2.615 2.615 0 009.5 4.072c-.75 0-1.389.266-1.92.796-.53.53-.794 1.17-.794 1.919 0 .749.265 1.389.795 1.919S8.75 9.5 9.5 9.5c.75 0 1.389-.265 1.92-.795.53-.53.794-1.17.794-1.92zm2.715 0c0 .77-.117 1.403-.35 1.898l-3.86 8.206a1.362 1.362 0 01-1.22.753c-.253 0-.492-.067-.715-.202a1.22 1.22 0 01-.493-.55l-3.87-8.207c-.233-.495-.35-1.128-.35-1.898 0-1.499.53-2.778 1.59-3.838 1.061-1.06 2.34-1.59 3.839-1.59 1.498 0 2.778.53 3.838 1.59s1.59 2.34 1.59 3.838z"/></svg>