<?xml version="1.0" encoding="utf-8"?><svg width="16" height="17" xmlns="http://www.w3.org/2000/svg" fill="#69af07" viewBox="0 0 16 17"><path fill-rule="evenodd" clip-rule="evenodd" d="M13.404 11.273c-.978-.837-1.971-1.344-2.938-.508l-.577.505c-.422.366-1.207 2.079-4.242-1.412-3.035-3.487-1.229-4.03-.806-4.394l.58-.505c.962-.838.599-1.892-.094-2.977l-.419-.658C4.212.242 3.453-.47 2.49.367l-.52.455C1.541 1.132.351 2.14.062 4.057c-.348 2.3.749 4.933 3.261 7.822 2.51 2.89 4.966 4.342 7.293 4.317 1.934-.021 3.102-1.059 3.468-1.436l.522-.456c.962-.835.365-1.686-.614-2.525l-.589-.506z"/></svg>