<?xml version="1.0" encoding="utf-8"?><svg width="22" height="22" xmlns="http://www.w3.org/2000/svg" fill="#69af07" viewBox="0 0 22 22"><path fill-rule="evenodd" clip-rule="evenodd" d="M19.715 3.041H2.285A2.269 2.269 0 00.02 5.308v11.385a2.269 2.269 0 002.267 2.266h17.428a2.269 2.269 0 002.267-2.266V5.308a2.269 2.269 0 00-2.267-2.267zm-.748 1.67l-7.448 5.91a.832.832 0 01-1.038 0L3.033 4.71h15.934zm1.344 11.982c0 .329-.267.596-.597.596H2.286a.596.596 0 01-.597-.596V5.777l7.754 6.151c.441.35.994.543 1.557.543s1.116-.193 1.557-.543l7.754-6.151v10.916z"/><path fill-rule="evenodd" clip-rule="evenodd" d="M19.715 18.978H2.285A2.288 2.288 0 010 16.693V5.307a2.288 2.288 0 012.286-2.285h17.428A2.288 2.288 0 0122 5.307v11.386a2.288 2.288 0 01-2.285 2.285zM2.285 3.061A2.25 2.25 0 00.04 5.307v11.386a2.25 2.25 0 002.247 2.246h17.428a2.25 2.25 0 002.247-2.246V5.307a2.25 2.25 0 00-2.246-2.246H2.285zm17.43 14.247H2.285a.616.616 0 01-.615-.615V5.736l7.786 6.177c.437.347.986.538 1.544.538.559 0 1.107-.191 1.544-.538l7.786-6.176v10.956c0 .34-.276.615-.615.615zM1.709 5.818v10.875c0 .318.258.576.577.576h17.428a.578.578 0 00.577-.576V5.817l-7.722 6.126A2.534 2.534 0 0111 12.49a2.534 2.534 0 01-1.569-.547L1.71 5.817zM11 10.82a.859.859 0 01-.531-.186L2.977 4.692h16.046l-7.492 5.943a.858.858 0 01-.531.186zm-7.912-6.09l7.405 5.874a.819.819 0 00.507.177.82.82 0 00.507-.177L18.91 4.73H3.088z"/></svg>