<?xml version="1.0" encoding="utf-8"?><svg width="22" height="13" xmlns="http://www.w3.org/2000/svg" fill="#171717" viewBox="0 0 22 13"><path fill-rule="evenodd" clip-rule="evenodd" d="M21.48 11.167a1.484 1.484 0 00-.073-.14c-.375-.678-1.09-1.51-2.147-2.495l-.023-.022-.011-.011-.011-.012h-.012c-.48-.459-.783-.767-.91-.925-.233-.301-.285-.606-.158-.914.09-.234.428-.726 1.012-1.478.308-.4.551-.719.73-.96 1.298-1.73 1.86-2.836 1.687-3.317L21.497.78c-.045-.067-.16-.13-.348-.186-.188-.056-.427-.066-.72-.028l-3.238.022a.419.419 0 00-.225.006l-.146.034-.056.028-.045.034a.5.5 0 00-.124.119.773.773 0 00-.112.197c-.352.91-.753 1.757-1.203 2.539-.277.467-.532.87-.765 1.213a5.832 5.832 0 01-.584.756c-.158.162-.3.291-.428.39-.127.097-.225.139-.292.123a8.189 8.189 0 01-.191-.045.75.75 0 01-.253-.276 1.241 1.241 0 01-.13-.44 4.9 4.9 0 01-.039-.457 9.585 9.585 0 01.006-.542c.008-.233.011-.391.011-.474 0-.286.006-.596.017-.93.011-.336.02-.6.028-.796.008-.196.011-.403.011-.621 0-.218-.013-.39-.04-.513a1.756 1.756 0 00-.117-.362.607.607 0 00-.23-.27 1.297 1.297 0 00-.377-.153C11.51.058 11.004.01 10.39.002 8.995-.013 8.1.077 7.702.272c-.158.083-.3.196-.427.339-.135.165-.154.256-.057.27.45.068.769.23.956.486l.068.135c.052.098.104.271.157.52.052.248.086.522.101.823.038.55.038 1.02 0 1.41-.037.392-.073.696-.107.915a1.835 1.835 0 01-.151.53 2.242 2.242 0 01-.135.248.194.194 0 01-.057.056.84.84 0 01-.303.057c-.105 0-.233-.053-.383-.158a2.701 2.701 0 01-.466-.434 5.809 5.809 0 01-.545-.773 13.504 13.504 0 01-.63-1.174l-.18-.327c-.112-.21-.266-.517-.46-.92a17.759 17.759 0 01-.518-1.168.744.744 0 00-.27-.36L4.24.711a.769.769 0 00-.18-.096A1.19 1.19 0 003.8.543L.72.565C.405.565.19.637.079.78L.034.848a.366.366 0 00-.034.18c0 .083.022.185.067.305.45 1.06.94 2.084 1.468 3.07.528.985.987 1.778 1.377 2.38.39.602.787 1.17 1.192 1.704.405.534.673.876.804 1.027.13.15.234.263.309.338l.281.27c.18.181.444.398.793.65.348.252.734.5 1.158.745a6.27 6.27 0 001.478.598c.563.154 1.11.216 1.642.186h1.293c.262-.023.46-.106.596-.248l.045-.057a.749.749 0 00.084-.209 1.15 1.15 0 00.04-.31 3.734 3.734 0 01.072-.874c.056-.26.12-.455.191-.587a1.442 1.442 0 01.434-.496.737.737 0 01.09-.04c.18-.06.39-.002.635.175.243.177.472.395.686.655.213.26.47.55.77.874.3.324.562.564.787.722l.224.136c.15.09.346.173.586.248.239.075.449.094.629.057l2.878-.046c.285 0 .506-.047.663-.14.158-.095.251-.198.282-.311a.876.876 0 00.005-.384 1.413 1.413 0 00-.079-.299z"/></svg>