<?xml version="1.0" encoding="utf-8"?><svg width="14" height="17" xmlns="http://www.w3.org/2000/svg" fill="#171717" viewBox="0 0 14 17"><path fill-rule="evenodd" clip-rule="evenodd" d="M13.435 8.2a1.727 1.727 0 00-1.478-1.344c-1.695-.189-3.41-.19-5.119-.189-1.708 0-3.424 0-5.12.19-.715.08-1.31.616-1.477 1.343C.003 9.235 0 10.365 0 11.432c0 1.066 0 2.196.238 3.231a1.727 1.727 0 001.478 1.343c1.695.19 3.41.19 5.12.19 1.708 0 3.423 0 5.119-.19a1.727 1.727 0 001.477-1.343c.239-1.035.24-2.165.24-3.232 0-1.066.001-2.196-.237-3.231zM3.9 9.002h-.99v5.258h-.919V9.002H1.02v-.861H3.9v.861zm2.496 5.258H5.57v-.497c-.328.377-.64.56-.944.56-.266 0-.45-.108-.532-.339-.045-.138-.073-.356-.073-.678V9.701h.826v3.357c0 .193 0 .294.008.321.02.128.082.193.193.193.166 0 .339-.127.522-.386V9.7h.827v4.56zm3.139-1.368c0 .421-.028.725-.084.919-.11.339-.331.512-.66.512-.294 0-.577-.163-.854-.504v.442h-.826V8.14h.826v1.998c.267-.328.55-.494.854-.494.329 0 .55.173.66.514.056.184.084.485.084.917v1.816zm3.118-.76h-1.652v.807c0 .422.138.633.422.633.203 0 .322-.11.369-.331.007-.045.018-.229.018-.56h.843v.12c0 .267-.01.45-.018.533a1.177 1.177 0 01-.192.495c-.23.331-.568.494-1 .494-.432 0-.761-.155-1-.467-.175-.228-.265-.587-.265-1.072v-1.597c0-.487.08-.844.255-1.074.239-.312.568-.468.99-.468.415 0 .743.156.975.468.173.23.255.587.255 1.074v.944z"/><path fill-rule="evenodd" clip-rule="evenodd" d="M11.415 10.389c-.276 0-.414.21-.414.632v.422h.826v-.422c0-.421-.138-.632-.412-.632zM8.35 10.389c-.137 0-.275.064-.413.2v2.78c.138.138.276.203.412.203.239 0 .36-.203.36-.615v-1.946c0-.411-.121-.622-.36-.622zM8.81 6.247c.305 0 .622-.185.955-.566v.502h.835V1.575h-.835v3.522c-.185.262-.36.391-.528.391-.112 0-.177-.066-.196-.195-.01-.028-.01-.13-.01-.325V1.575H8.2V5.22c0 .326.028.546.074.685.084.234.269.343.538.343zM2.998 3.68v2.503h.926V3.68L5.038 0H4.1L3.47 2.428 2.812 0h-.974c.195.573.398 1.15.593 1.723.298.862.483 1.512.567 1.956zM6.279 6.247c.418 0 .743-.158.974-.472.175-.23.259-.594.259-1.084V3.078c0-.493-.084-.853-.26-1.086-.23-.315-.555-.472-.973-.472-.417 0-.741.157-.973.472-.177.233-.26.593-.26 1.086V4.69c0 .49.083.853.26 1.084.231.314.556.472.973.472zM5.88 2.91c0-.426.13-.639.399-.639s.398.213.398.64v1.938c0 .426-.13.64-.398.64-.27 0-.399-.214-.399-.64V2.91z"/></svg>