<?xml version="1.0" encoding="utf-8"?><svg width="17" height="17" xmlns="http://www.w3.org/2000/svg" fill="#171717" viewBox="0 0 17 17"><path fill-rule="evenodd" clip-rule="evenodd" d="M11.726 0H4.47A4.475 4.475 0 000 4.47v7.256a4.475 4.475 0 004.47 4.47h7.256a4.475 4.475 0 004.47-4.47V4.47A4.475 4.475 0 0011.726 0zm3.033 11.726a3.036 3.036 0 01-3.033 3.033H4.47a3.036 3.036 0 01-3.032-3.033V4.47a3.036 3.036 0 013.032-3.033h7.257A3.036 3.036 0 0114.76 4.47v7.256z"/><path fill-rule="evenodd" clip-rule="evenodd" d="M8.098 3.925a4.178 4.178 0 00-4.173 4.173 4.178 4.178 0 004.173 4.173 4.178 4.178 0 004.173-4.173 4.178 4.178 0 00-4.173-4.173zm0 6.91a2.74 2.74 0 01-2.736-2.737 2.74 2.74 0 012.736-2.736 2.74 2.74 0 012.736 2.736 2.74 2.74 0 01-2.736 2.736zM12.446 2.706a1.058 1.058 0 00-1.053 1.054c0 .277.113.55.309.746.195.195.467.308.744.308.278 0 .55-.113.746-.308a1.058 1.058 0 000-1.49 1.058 1.058 0 00-.746-.31z"/></svg>