<?xml version="1.0" encoding="utf-8"?><svg fill="#69af07" xmlns="http://www.w3.org/2000/svg" viewBox="0 0 50 50" width="100" height="100"><path d="M48 1c-1.55 2.57-4.445 9.16-15.95 12.89a14.623 14.623 0 01-.234-2.605c-1.867 0-2.546-1.644-3.543-2.285-.96 2.14-2.386 3.684-3.543 4.57-1.89 1.446-3.695 2.575-4.73 3.43 4.48-1.047 6.059-1.14 8.273-1.14C30.488 15.86 33 17 33 17s-.414-.805-.754-2.176C37.086 13.996 46.266 10.578 48 1zM28 18c-1.703 0-3.207.082-5.184.406 0 .008.004.008.004.016.067.723.149 1.621-.488 2.422l-.844 1.05 1.254.5c.125.051.246.094.371.133v.02c0 1.406 1.34 1.652 1.985 1.77.87.16.87.214.87.542v.934c-.023.348-.062.703-.109 1.059a10.425 10.425 0 01-1.593 2.363c-.957-1.547-2.735-4.402-2.942-4.688a.997.997 0 00.453-1.062.998.998 0 00-.699-.727C20.762 22.496 20.273 22 20 22c-.234 0-1.129.242-1.5.332-.707.168-.46.602-.242.91l-1.324.305c-.954-2.121-1.372-1.149-2.164-1.047-1.102.2-2.2.398-1.598 1.598l.129.28-11.528 2.65a1 1 0 00-.75 1.195c.125.535.665.875 1.2.75l11.996-2.754c.344.375 1.11.718 1.953 1.98.2.399 4 5.801 5 5.801 1.367 0 2.71-.578 3.86-1.305l-.028 5.457 8.273-1.382C33.582 35.18 34 32.53 34 30c0-2.254-.93-3.445-1.762-4.285C37.79 28.629 35.297 39.835 40 46c1.188-.75 5.188-3.125 8-5-5.602-3.598-6.508-15.531-16.98-16.871-.106-.016-.582-.082-.582-.082v-.063c0-.054 0-.097.003-.125.047-.02.11-.039.157-.058.617-.203 1.765-.582 2.062-2.656l.274-1.891-1.57.781c-.079-.238-.153-.465-.223-.683a15.276 15.276 0 00-.375-1.086C30.004 18.046 28.84 18 28 18zm-8.473 7.004c.344.691 1.891 4.16 2.575 5.766a2.404 2.404 0 01-.73.132c-2.024-1.84-4.298-4.101-4.419-5.308zM33.578 38.75l-8.418 1.402.973 6.848H27c6.66 0 9.27-1.027 9.375-1.074l1.063-.43z"/></svg>