<?xml version="1.0" encoding="utf-8"?><svg fill="#69af07" xmlns="http://www.w3.org/2000/svg" viewBox="0 0 50 50" width="100" height="100"><path fill-rule="evenodd" d="M25.277 3s-2.773 3.082-2.105 7.813c.48 3.148 3.004 5.117 4.844 6.16.02 1.441-.02 2.855-.125 4.23-.965-2.2-2.614-4.726-5.36-5.652-3.437-1.32-7.875.11-7.875.11.555 4.398 3.442 8.03 8.098 8.91 1.879.257 3.488.316 4.695.331-.445 2.715-1.148 5.246-2.086 7.52-1.062-2.082-3.707-5.723-9.597-6.422-3.551-.441-6.657 1.98-6.657 1.98s1.774 7.918 8.985 7.81c2.62 0 4.816-.622 6.23-1.153-.976 1.863-2.125 3.515-3.453 4.894C17.543 42.938 13.215 44.7 8 44.7v2.203c5.879 0 10.762-1.98 14.531-5.941 1.574-1.625 2.89-3.555 3.965-5.75 1.016.578 3.668 1.789 8.238 1.789 5.993 0 8.766-6.598 8.766-6.598S40.504 28.2 35.844 28.2c-3.774 0-6.637 2.563-8.282 4.52.883-2.356 1.524-4.965 1.926-7.809 1.059.059 6.59.211 9.907-2.98 3.55-3.52 2.996-6.82 2.996-6.82s-5.993-.88-9.317 2.09c-1.62 1.413-2.699 3.78-3.324 5.523.148-1.551.238-3.16.258-4.832.023-.036 1.926-2.598 1.926-6.75C31.934 5.312 25.277 3 25.277 3z"/></svg>