<?xml version="1.0" encoding="utf-8"?><svg fill="#69af07" xmlns="http://www.w3.org/2000/svg" viewBox="0 0 512 512" width="512" height="512"><path d="M318.72 293.065c-12.87-7.03-27.63-11.02-43.32-11.02h-37.29c-16.13 0-31.27 4.22-44.38 11.61-27.57 15.52-46.19 45.07-46.19 78.96v27.94h218.43v-27.94c0-34.33-19.1-64.19-47.25-79.55zM421.7 257.225h-31c-18.1 0-34.97 5.35-49.12 14.57 6.8 4.46 13.19 9.67 19.08 15.56 22.77 22.77 35.31 53.05 35.31 85.26v13.14H512v-38.23c0-49.79-40.51-90.3-90.3-90.3zM121.3 257.225h-31c-49.79 0-90.3 40.51-90.3 90.3v38.23h117.54v-13.14c0-32.21 12.55-62.49 35.32-85.26 5.67-5.67 11.8-10.71 18.32-15.06-14.3-9.52-31.45-15.07-49.88-15.07zM406.153 121.416c-.159 0-.324.001-.484.003-33.558.277-60.622 29.282-60.33 64.655.291 35.205 27.565 63.652 60.906 63.652.16 0 .324-.001.484-.003 16.455-.136 31.81-7.068 43.238-19.521 11.162-12.164 17.232-28.192 17.093-45.134-.291-35.205-27.565-63.652-60.907-63.652zM105.754 121.416c-.159 0-.324.001-.484.003-33.558.277-60.622 29.282-60.33 64.655.29 35.205 27.565 63.652 60.906 63.652.16 0 .324-.001.484-.003 16.454-.136 31.81-7.068 43.238-19.521 11.163-12.164 17.233-28.192 17.093-45.134-.291-35.205-27.565-63.652-60.907-63.652zM256.76 111.445c-38.69 0-70.16 33.25-70.16 74.13 0 29.54 16.44 55.1 40.17 67 9.1 4.57 19.27 7.12 29.99 7.12 10.72 0 20.89-2.55 29.99-7.12 23.73-11.9 40.17-37.46 40.17-67 0-40.88-31.47-74.13-70.16-74.13z"/></svg>