<?xml version="1.0" encoding="utf-8"?><svg viewBox="0 0 512 512" xmlns="http://www.w3.org/2000/svg" xmlns:xlink="http://www.w3.org/1999/xlink"><style>:root>svg{display:none}:root>svg:target{display:block}</style><svg fill="#69af07" viewBox="0 0 17 17" id="contacts-list-instagram-green" xmlns="http://www.w3.org/2000/svg"><path fill-rule="evenodd" clip-rule="evenodd" d="M11.726 0H4.47A4.475 4.475 0 000 4.47v7.256a4.475 4.475 0 004.47 4.47h7.256a4.475 4.475 0 004.47-4.47V4.47A4.475 4.475 0 0011.726 0zm3.033 11.726a3.036 3.036 0 01-3.033 3.033H4.47a3.036 3.036 0 01-3.032-3.033V4.47a3.036 3.036 0 013.032-3.033h7.257A3.036 3.036 0 0114.76 4.47v7.256z"/><path fill-rule="evenodd" clip-rule="evenodd" d="M8.098 3.925a4.178 4.178 0 00-4.173 4.173 4.178 4.178 0 004.173 4.173 4.178 4.178 0 004.173-4.173 4.178 4.178 0 00-4.173-4.173zm0 6.91a2.74 2.74 0 01-2.736-2.737 2.74 2.74 0 012.736-2.736 2.74 2.74 0 012.736 2.736 2.74 2.74 0 01-2.736 2.736zM12.446 2.706a1.058 1.058 0 00-1.053 1.054c0 .277.113.55.309.746.195.195.467.308.744.308.278 0 .55-.113.746-.308a1.058 1.058 0 000-1.49 1.058 1.058 0 00-.746-.31z"/></svg><svg fill="#9e9f9f" viewBox="0 0 17 17" id="contacts-list-instagram-grey" xmlns="http://www.w3.org/2000/svg"><path fill-rule="evenodd" clip-rule="evenodd" d="M11.726 0H4.47A4.475 4.475 0 000 4.47v7.256a4.475 4.475 0 004.47 4.47h7.256a4.475 4.475 0 004.47-4.47V4.47A4.475 4.475 0 0011.726 0zm3.033 11.726a3.036 3.036 0 01-3.033 3.033H4.47a3.036 3.036 0 01-3.032-3.033V4.47a3.036 3.036 0 013.032-3.033h7.257A3.036 3.036 0 0114.76 4.47v7.256z"/><path fill-rule="evenodd" clip-rule="evenodd" d="M8.098 3.925a4.178 4.178 0 00-4.173 4.173 4.178 4.178 0 004.173 4.173 4.178 4.178 0 004.173-4.173 4.178 4.178 0 00-4.173-4.173zm0 6.91a2.74 2.74 0 01-2.736-2.737 2.74 2.74 0 012.736-2.736 2.74 2.74 0 012.736 2.736 2.74 2.74 0 01-2.736 2.736zM12.446 2.706a1.058 1.058 0 00-1.053 1.054c0 .277.113.55.309.746.195.195.467.308.744.308.278 0 .55-.113.746-.308a1.058 1.058 0 000-1.49 1.058 1.058 0 00-.746-.31z"/></svg><svg fill="#69af07" viewBox="0 0 22 22" id="contacts-list-mail-green" xmlns="http://www.w3.org/2000/svg"><path fill-rule="evenodd" clip-rule="evenodd" d="M19.715 3.041H2.285A2.269 2.269 0 00.02 5.308v11.385a2.269 2.269 0 002.267 2.266h17.428a2.269 2.269 0 002.267-2.266V5.308a2.269 2.269 0 00-2.267-2.267zm-.748 1.67l-7.448 5.91a.832.832 0 01-1.038 0L3.033 4.71h15.934zm1.344 11.982c0 .329-.267.596-.597.596H2.286a.596.596 0 01-.597-.596V5.777l7.754 6.151c.441.35.994.543 1.557.543s1.116-.193 1.557-.543l7.754-6.151v10.916z"/><path fill-rule="evenodd" clip-rule="evenodd" d="M19.715 18.978H2.285A2.288 2.288 0 010 16.693V5.307a2.288 2.288 0 012.286-2.285h17.428A2.288 2.288 0 0122 5.307v11.386a2.288 2.288 0 01-2.285 2.285zM2.285 3.061A2.25 2.25 0 00.04 5.307v11.386a2.25 2.25 0 002.247 2.246h17.428a2.25 2.25 0 002.247-2.246V5.307a2.25 2.25 0 00-2.246-2.246H2.285zm17.43 14.247H2.285a.616.616 0 01-.615-.615V5.736l7.786 6.177c.437.347.986.538 1.544.538.559 0 1.107-.191 1.544-.538l7.786-6.176v10.956c0 .34-.276.615-.615.615zM1.709 5.818v10.875c0 .318.258.576.577.576h17.428a.578.578 0 00.577-.576V5.817l-7.722 6.126A2.534 2.534 0 0111 12.49a2.534 2.534 0 01-1.569-.547L1.71 5.817zM11 10.82a.859.859 0 01-.531-.186L2.977 4.692h16.046l-7.492 5.943a.858.858 0 01-.531.186zm-7.912-6.09l7.405 5.874a.819.819 0 00.507.177.82.82 0 00.507-.177L18.91 4.73H3.088z"/></svg><svg fill="#9e9f9f" viewBox="0 0 22 22" id="contacts-list-mail-grey" xmlns="http://www.w3.org/2000/svg"><path fill-rule="evenodd" clip-rule="evenodd" d="M19.715 3.041H2.285A2.269 2.269 0 00.02 5.308v11.385a2.269 2.269 0 002.267 2.266h17.428a2.269 2.269 0 002.267-2.266V5.308a2.269 2.269 0 00-2.267-2.267zm-.748 1.67l-7.448 5.91a.832.832 0 01-1.038 0L3.033 4.71h15.934zm1.344 11.982c0 .329-.267.596-.597.596H2.286a.596.596 0 01-.597-.596V5.777l7.754 6.151c.441.35.994.543 1.557.543s1.116-.193 1.557-.543l7.754-6.151v10.916z"/><path fill-rule="evenodd" clip-rule="evenodd" d="M19.715 18.978H2.285A2.288 2.288 0 010 16.693V5.307a2.288 2.288 0 012.286-2.285h17.428A2.288 2.288 0 0122 5.307v11.386a2.288 2.288 0 01-2.285 2.285zM2.285 3.061A2.25 2.25 0 00.04 5.307v11.386a2.25 2.25 0 002.247 2.246h17.428a2.25 2.25 0 002.247-2.246V5.307a2.25 2.25 0 00-2.246-2.246H2.285zm17.43 14.247H2.285a.616.616 0 01-.615-.615V5.736l7.786 6.177c.437.347.986.538 1.544.538.559 0 1.107-.191 1.544-.538l7.786-6.176v10.956c0 .34-.276.615-.615.615zM1.709 5.818v10.875c0 .318.258.576.577.576h17.428a.578.578 0 00.577-.576V5.817l-7.722 6.126A2.534 2.534 0 0111 12.49a2.534 2.534 0 01-1.569-.547L1.71 5.817zM11 10.82a.859.859 0 01-.531-.186L2.977 4.692h16.046l-7.492 5.943a.858.858 0 01-.531.186zm-7.912-6.09l7.405 5.874a.819.819 0 00.507.177.82.82 0 00.507-.177L18.91 4.73H3.088z"/></svg><svg fill="#69af07" viewBox="0 0 19 19" id="contacts-list-map-green" xmlns="http://www.w3.org/2000/svg"><path fill-rule="evenodd" clip-rule="evenodd" d="M12.214 6.786c0-.75-.265-1.39-.795-1.92A2.615 2.615 0 009.5 4.072c-.75 0-1.389.266-1.92.796-.53.53-.794 1.17-.794 1.919 0 .749.265 1.389.795 1.919S8.75 9.5 9.5 9.5c.75 0 1.389-.265 1.92-.795.53-.53.794-1.17.794-1.92zm2.715 0c0 .77-.117 1.403-.35 1.898l-3.86 8.206a1.362 1.362 0 01-1.22.753c-.253 0-.492-.067-.715-.202a1.22 1.22 0 01-.493-.55l-3.87-8.207c-.233-.495-.35-1.128-.35-1.898 0-1.499.53-2.778 1.59-3.838 1.061-1.06 2.34-1.59 3.839-1.59 1.498 0 2.778.53 3.838 1.59s1.59 2.34 1.59 3.838z"/></svg><svg fill="#9e9f9f" viewBox="0 0 19 19" id="contacts-list-map-grey" xmlns="http://www.w3.org/2000/svg"><path fill-rule="evenodd" clip-rule="evenodd" d="M12.214 6.786c0-.75-.265-1.39-.795-1.92A2.615 2.615 0 009.5 4.072c-.75 0-1.389.266-1.92.796-.53.53-.794 1.17-.794 1.919 0 .749.265 1.389.795 1.919S8.75 9.5 9.5 9.5c.75 0 1.389-.265 1.92-.795.53-.53.794-1.17.794-1.92zm2.715 0c0 .77-.117 1.403-.35 1.898l-3.86 8.206a1.362 1.362 0 01-1.22.753c-.253 0-.492-.067-.715-.202a1.22 1.22 0 01-.493-.55l-3.87-8.207c-.233-.495-.35-1.128-.35-1.898 0-1.499.53-2.778 1.59-3.838 1.061-1.06 2.34-1.59 3.839-1.59 1.498 0 2.778.53 3.838 1.59s1.59 2.34 1.59 3.838z"/></svg><svg fill="#69af07" viewBox="0 0 16 17" id="contacts-list-tel-green" xmlns="http://www.w3.org/2000/svg"><path fill-rule="evenodd" clip-rule="evenodd" d="M13.404 11.273c-.978-.837-1.971-1.344-2.938-.508l-.577.505c-.422.366-1.207 2.079-4.242-1.412-3.035-3.487-1.229-4.03-.806-4.394l.58-.505c.962-.838.599-1.892-.094-2.977l-.419-.658C4.212.242 3.453-.47 2.49.367l-.52.455C1.541 1.132.351 2.14.062 4.057c-.348 2.3.749 4.933 3.261 7.822 2.51 2.89 4.966 4.342 7.293 4.317 1.934-.021 3.102-1.059 3.468-1.436l.522-.456c.962-.835.365-1.686-.614-2.525l-.589-.506z"/></svg><svg fill="#9e9f9f" viewBox="0 0 16 17" id="contacts-list-tel-grey" xmlns="http://www.w3.org/2000/svg"><path fill-rule="evenodd" clip-rule="evenodd" d="M13.404 11.273c-.978-.837-1.971-1.344-2.938-.508l-.577.505c-.422.366-1.207 2.079-4.242-1.412-3.035-3.487-1.229-4.03-.806-4.394l.58-.505c.962-.838.599-1.892-.094-2.977l-.419-.658C4.212.242 3.453-.47 2.49.367l-.52.455C1.541 1.132.351 2.14.062 4.057c-.348 2.3.749 4.933 3.261 7.822 2.51 2.89 4.966 4.342 7.293 4.317 1.934-.021 3.102-1.059 3.468-1.436l.522-.456c.962-.835.365-1.686-.614-2.525l-.589-.506z"/></svg><svg fill="#fbfbfb" viewBox="0 0 17 17" id="footer-instagram-lg" xmlns="http://www.w3.org/2000/svg"><path fill-rule="evenodd" clip-rule="evenodd" d="M11.726 0H4.47A4.475 4.475 0 000 4.47v7.256a4.475 4.475 0 004.47 4.47h7.256a4.475 4.475 0 004.47-4.47V4.47A4.475 4.475 0 0011.726 0zm3.033 11.726a3.036 3.036 0 01-3.033 3.033H4.47a3.036 3.036 0 01-3.032-3.033V4.47a3.036 3.036 0 013.032-3.033h7.257A3.036 3.036 0 0114.76 4.47v7.256z"/><path fill-rule="evenodd" clip-rule="evenodd" d="M8.098 3.925a4.178 4.178 0 00-4.173 4.173 4.178 4.178 0 004.173 4.173 4.178 4.178 0 004.173-4.173 4.178 4.178 0 00-4.173-4.173zm0 6.91a2.74 2.74 0 01-2.736-2.737 2.74 2.74 0 012.736-2.736 2.74 2.74 0 012.736 2.736 2.74 2.74 0 01-2.736 2.736zM12.446 2.706a1.058 1.058 0 00-1.053 1.054c0 .277.113.55.309.746.195.195.467.308.744.308.278 0 .55-.113.746-.308a1.058 1.058 0 000-1.49 1.058 1.058 0 00-.746-.31z"/></svg><svg fill="#fbfbfb" viewBox="0 0 22 13" id="footer-vk-lg" xmlns="http://www.w3.org/2000/svg"><path fill-rule="evenodd" clip-rule="evenodd" d="M21.48 11.167a1.484 1.484 0 00-.073-.14c-.375-.678-1.09-1.51-2.147-2.495l-.023-.022-.011-.011-.011-.012h-.012c-.48-.459-.783-.767-.91-.925-.233-.301-.285-.606-.158-.914.09-.234.428-.726 1.012-1.478.308-.4.551-.719.73-.96 1.298-1.73 1.86-2.836 1.687-3.317L21.497.78c-.045-.067-.16-.13-.348-.186-.188-.056-.427-.066-.72-.028l-3.238.022a.419.419 0 00-.225.006l-.146.034-.056.028-.045.034a.5.5 0 00-.124.119.773.773 0 00-.112.197c-.352.91-.753 1.757-1.203 2.539-.277.467-.532.87-.765 1.213a5.832 5.832 0 01-.584.756c-.158.162-.3.291-.428.39-.127.097-.225.139-.292.123a8.189 8.189 0 01-.191-.045.75.75 0 01-.253-.276 1.241 1.241 0 01-.13-.44 4.9 4.9 0 01-.039-.457 9.585 9.585 0 01.006-.542c.008-.233.011-.391.011-.474 0-.286.006-.596.017-.93.011-.336.02-.6.028-.796.008-.196.011-.403.011-.621 0-.218-.013-.39-.04-.513a1.756 1.756 0 00-.117-.362.607.607 0 00-.23-.27 1.297 1.297 0 00-.377-.153C11.51.058 11.004.01 10.39.002 8.995-.013 8.1.077 7.702.272c-.158.083-.3.196-.427.339-.135.165-.154.256-.057.27.45.068.769.23.956.486l.068.135c.052.098.104.271.157.52.052.248.086.522.101.823.038.55.038 1.02 0 1.41-.037.392-.073.696-.107.915a1.835 1.835 0 01-.151.53 2.242 2.242 0 01-.135.248.194.194 0 01-.057.056.84.84 0 01-.303.057c-.105 0-.233-.053-.383-.158a2.701 2.701 0 01-.466-.434 5.809 5.809 0 01-.545-.773 13.504 13.504 0 01-.63-1.174l-.18-.327c-.112-.21-.266-.517-.46-.92a17.759 17.759 0 01-.518-1.168.744.744 0 00-.27-.36L4.24.711a.769.769 0 00-.18-.096A1.19 1.19 0 003.8.543L.72.565C.405.565.19.637.079.78L.034.848a.366.366 0 00-.034.18c0 .083.022.185.067.305.45 1.06.94 2.084 1.468 3.07.528.985.987 1.778 1.377 2.38.39.602.787 1.17 1.192 1.704.405.534.673.876.804 1.027.13.15.234.263.309.338l.281.27c.18.181.444.398.793.65.348.252.734.5 1.158.745a6.27 6.27 0 001.478.598c.563.154 1.11.216 1.642.186h1.293c.262-.023.46-.106.596-.248l.045-.057a.749.749 0 00.084-.209 1.15 1.15 0 00.04-.31 3.734 3.734 0 01.072-.874c.056-.26.12-.455.191-.587a1.442 1.442 0 01.434-.496.737.737 0 01.09-.04c.18-.06.39-.002.635.175.243.177.472.395.686.655.213.26.47.55.77.874.3.324.562.564.787.722l.224.136c.15.09.346.173.586.248.239.075.449.094.629.057l2.878-.046c.285 0 .506-.047.663-.14.158-.095.251-.198.282-.311a.876.876 0 00.005-.384 1.413 1.413 0 00-.079-.299z"/></svg><svg fill="#fbfbfb" viewBox="0 0 14 17" id="footer-youtube-lg" xmlns="http://www.w3.org/2000/svg"><path fill-rule="evenodd" clip-rule="evenodd" d="M13.435 8.2a1.727 1.727 0 00-1.478-1.344c-1.695-.189-3.41-.19-5.119-.189-1.708 0-3.424 0-5.12.19-.715.08-1.31.616-1.477 1.343C.003 9.235 0 10.365 0 11.432c0 1.066 0 2.196.238 3.231a1.727 1.727 0 001.478 1.343c1.695.19 3.41.19 5.12.19 1.708 0 3.423 0 5.119-.19a1.727 1.727 0 001.477-1.343c.239-1.035.24-2.165.24-3.232 0-1.066.001-2.196-.237-3.231zM3.9 9.002h-.99v5.258h-.919V9.002H1.02v-.861H3.9v.861zm2.496 5.258H5.57v-.497c-.328.377-.64.56-.944.56-.266 0-.45-.108-.532-.339-.045-.138-.073-.356-.073-.678V9.701h.826v3.357c0 .193 0 .294.008.321.02.128.082.193.193.193.166 0 .339-.127.522-.386V9.7h.827v4.56zm3.139-1.368c0 .421-.028.725-.084.919-.11.339-.331.512-.66.512-.294 0-.577-.163-.854-.504v.442h-.826V8.14h.826v1.998c.267-.328.55-.494.854-.494.329 0 .55.173.66.514.056.184.084.485.084.917v1.816zm3.118-.76h-1.652v.807c0 .422.138.633.422.633.203 0 .322-.11.369-.331.007-.045.018-.229.018-.56h.843v.12c0 .267-.01.45-.018.533a1.177 1.177 0 01-.192.495c-.23.331-.568.494-1 .494-.432 0-.761-.155-1-.467-.175-.228-.265-.587-.265-1.072v-1.597c0-.487.08-.844.255-1.074.239-.312.568-.468.99-.468.415 0 .743.156.975.468.173.23.255.587.255 1.074v.944z"/><path fill-rule="evenodd" clip-rule="evenodd" d="M11.415 10.389c-.276 0-.414.21-.414.632v.422h.826v-.422c0-.421-.138-.632-.412-.632zM8.35 10.389c-.137 0-.275.064-.413.2v2.78c.138.138.276.203.412.203.239 0 .36-.203.36-.615v-1.946c0-.411-.121-.622-.36-.622zM8.81 6.247c.305 0 .622-.185.955-.566v.502h.835V1.575h-.835v3.522c-.185.262-.36.391-.528.391-.112 0-.177-.066-.196-.195-.01-.028-.01-.13-.01-.325V1.575H8.2V5.22c0 .326.028.546.074.685.084.234.269.343.538.343zM2.998 3.68v2.503h.926V3.68L5.038 0H4.1L3.47 2.428 2.812 0h-.974c.195.573.398 1.15.593 1.723.298.862.483 1.512.567 1.956zM6.279 6.247c.418 0 .743-.158.974-.472.175-.23.259-.594.259-1.084V3.078c0-.493-.084-.853-.26-1.086-.23-.315-.555-.472-.973-.472-.417 0-.741.157-.973.472-.177.233-.26.593-.26 1.086V4.69c0 .49.083.853.26 1.084.231.314.556.472.973.472zM5.88 2.91c0-.426.13-.639.399-.639s.398.213.398.64v1.938c0 .426-.13.64-.398.64-.27 0-.399-.214-.399-.64V2.91z"/></svg><svg fill="#171717" viewBox="0 0 17 17" id="header-instagram-black" xmlns="http://www.w3.org/2000/svg"><path fill-rule="evenodd" clip-rule="evenodd" d="M11.726 0H4.47A4.475 4.475 0 000 4.47v7.256a4.475 4.475 0 004.47 4.47h7.256a4.475 4.475 0 004.47-4.47V4.47A4.475 4.475 0 0011.726 0zm3.033 11.726a3.036 3.036 0 01-3.033 3.033H4.47a3.036 3.036 0 01-3.032-3.033V4.47a3.036 3.036 0 013.032-3.033h7.257A3.036 3.036 0 0114.76 4.47v7.256z"/><path fill-rule="evenodd" clip-rule="evenodd" d="M8.098 3.925a4.178 4.178 0 00-4.173 4.173 4.178 4.178 0 004.173 4.173 4.178 4.178 0 004.173-4.173 4.178 4.178 0 00-4.173-4.173zm0 6.91a2.74 2.74 0 01-2.736-2.737 2.74 2.74 0 012.736-2.736 2.74 2.74 0 012.736 2.736 2.74 2.74 0 01-2.736 2.736zM12.446 2.706a1.058 1.058 0 00-1.053 1.054c0 .277.113.55.309.746.195.195.467.308.744.308.278 0 .55-.113.746-.308a1.058 1.058 0 000-1.49 1.058 1.058 0 00-.746-.31z"/></svg><svg fill="#69af07" viewBox="0 0 17 17" id="header-instagram-green" xmlns="http://www.w3.org/2000/svg"><path fill-rule="evenodd" clip-rule="evenodd" d="M11.726 0H4.47A4.475 4.475 0 000 4.47v7.256a4.475 4.475 0 004.47 4.47h7.256a4.475 4.475 0 004.47-4.47V4.47A4.475 4.475 0 0011.726 0zm3.033 11.726a3.036 3.036 0 01-3.033 3.033H4.47a3.036 3.036 0 01-3.032-3.033V4.47a3.036 3.036 0 013.032-3.033h7.257A3.036 3.036 0 0114.76 4.47v7.256z"/><path fill-rule="evenodd" clip-rule="evenodd" d="M8.098 3.925a4.178 4.178 0 00-4.173 4.173 4.178 4.178 0 004.173 4.173 4.178 4.178 0 004.173-4.173 4.178 4.178 0 00-4.173-4.173zm0 6.91a2.74 2.74 0 01-2.736-2.737 2.74 2.74 0 012.736-2.736 2.74 2.74 0 012.736 2.736 2.74 2.74 0 01-2.736 2.736zM12.446 2.706a1.058 1.058 0 00-1.053 1.054c0 .277.113.55.309.746.195.195.467.308.744.308.278 0 .55-.113.746-.308a1.058 1.058 0 000-1.49 1.058 1.058 0 00-.746-.31z"/></svg><svg fill="#171717" viewBox="0 0 22 13" id="header-vk-black" xmlns="http://www.w3.org/2000/svg"><path fill-rule="evenodd" clip-rule="evenodd" d="M21.48 11.167a1.484 1.484 0 00-.073-.14c-.375-.678-1.09-1.51-2.147-2.495l-.023-.022-.011-.011-.011-.012h-.012c-.48-.459-.783-.767-.91-.925-.233-.301-.285-.606-.158-.914.09-.234.428-.726 1.012-1.478.308-.4.551-.719.73-.96 1.298-1.73 1.86-2.836 1.687-3.317L21.497.78c-.045-.067-.16-.13-.348-.186-.188-.056-.427-.066-.72-.028l-3.238.022a.419.419 0 00-.225.006l-.146.034-.056.028-.045.034a.5.5 0 00-.124.119.773.773 0 00-.112.197c-.352.91-.753 1.757-1.203 2.539-.277.467-.532.87-.765 1.213a5.832 5.832 0 01-.584.756c-.158.162-.3.291-.428.39-.127.097-.225.139-.292.123a8.189 8.189 0 01-.191-.045.75.75 0 01-.253-.276 1.241 1.241 0 01-.13-.44 4.9 4.9 0 01-.039-.457 9.585 9.585 0 01.006-.542c.008-.233.011-.391.011-.474 0-.286.006-.596.017-.93.011-.336.02-.6.028-.796.008-.196.011-.403.011-.621 0-.218-.013-.39-.04-.513a1.756 1.756 0 00-.117-.362.607.607 0 00-.23-.27 1.297 1.297 0 00-.377-.153C11.51.058 11.004.01 10.39.002 8.995-.013 8.1.077 7.702.272c-.158.083-.3.196-.427.339-.135.165-.154.256-.057.27.45.068.769.23.956.486l.068.135c.052.098.104.271.157.52.052.248.086.522.101.823.038.55.038 1.02 0 1.41-.037.392-.073.696-.107.915a1.835 1.835 0 01-.151.53 2.242 2.242 0 01-.135.248.194.194 0 01-.057.056.84.84 0 01-.303.057c-.105 0-.233-.053-.383-.158a2.701 2.701 0 01-.466-.434 5.809 5.809 0 01-.545-.773 13.504 13.504 0 01-.63-1.174l-.18-.327c-.112-.21-.266-.517-.46-.92a17.759 17.759 0 01-.518-1.168.744.744 0 00-.27-.36L4.24.711a.769.769 0 00-.18-.096A1.19 1.19 0 003.8.543L.72.565C.405.565.19.637.079.78L.034.848a.366.366 0 00-.034.18c0 .083.022.185.067.305.45 1.06.94 2.084 1.468 3.07.528.985.987 1.778 1.377 2.38.39.602.787 1.17 1.192 1.704.405.534.673.876.804 1.027.13.15.234.263.309.338l.281.27c.18.181.444.398.793.65.348.252.734.5 1.158.745a6.27 6.27 0 001.478.598c.563.154 1.11.216 1.642.186h1.293c.262-.023.46-.106.596-.248l.045-.057a.749.749 0 00.084-.209 1.15 1.15 0 00.04-.31 3.734 3.734 0 01.072-.874c.056-.26.12-.455.191-.587a1.442 1.442 0 01.434-.496.737.737 0 01.09-.04c.18-.06.39-.002.635.175.243.177.472.395.686.655.213.26.47.55.77.874.3.324.562.564.787.722l.224.136c.15.09.346.173.586.248.239.075.449.094.629.057l2.878-.046c.285 0 .506-.047.663-.14.158-.095.251-.198.282-.311a.876.876 0 00.005-.384 1.413 1.413 0 00-.079-.299z"/></svg><svg fill="#69af07" viewBox="0 0 22 13" id="header-vk-green" xmlns="http://www.w3.org/2000/svg"><path fill-rule="evenodd" clip-rule="evenodd" d="M21.48 11.167a1.484 1.484 0 00-.073-.14c-.375-.678-1.09-1.51-2.147-2.495l-.023-.022-.011-.011-.011-.012h-.012c-.48-.459-.783-.767-.91-.925-.233-.301-.285-.606-.158-.914.09-.234.428-.726 1.012-1.478.308-.4.551-.719.73-.96 1.298-1.73 1.86-2.836 1.687-3.317L21.497.78c-.045-.067-.16-.13-.348-.186-.188-.056-.427-.066-.72-.028l-3.238.022a.419.419 0 00-.225.006l-.146.034-.056.028-.045.034a.5.5 0 00-.124.119.773.773 0 00-.112.197c-.352.91-.753 1.757-1.203 2.539-.277.467-.532.87-.765 1.213a5.832 5.832 0 01-.584.756c-.158.162-.3.291-.428.39-.127.097-.225.139-.292.123a8.189 8.189 0 01-.191-.045.75.75 0 01-.253-.276 1.241 1.241 0 01-.13-.44 4.9 4.9 0 01-.039-.457 9.585 9.585 0 01.006-.542c.008-.233.011-.391.011-.474 0-.286.006-.596.017-.93.011-.336.02-.6.028-.796.008-.196.011-.403.011-.621 0-.218-.013-.39-.04-.513a1.756 1.756 0 00-.117-.362.607.607 0 00-.23-.27 1.297 1.297 0 00-.377-.153C11.51.058 11.004.01 10.39.002 8.995-.013 8.1.077 7.702.272c-.158.083-.3.196-.427.339-.135.165-.154.256-.057.27.45.068.769.23.956.486l.068.135c.052.098.104.271.157.52.052.248.086.522.101.823.038.55.038 1.02 0 1.41-.037.392-.073.696-.107.915a1.835 1.835 0 01-.151.53 2.242 2.242 0 01-.135.248.194.194 0 01-.057.056.84.84 0 01-.303.057c-.105 0-.233-.053-.383-.158a2.701 2.701 0 01-.466-.434 5.809 5.809 0 01-.545-.773 13.504 13.504 0 01-.63-1.174l-.18-.327c-.112-.21-.266-.517-.46-.92a17.759 17.759 0 01-.518-1.168.744.744 0 00-.27-.36L4.24.711a.769.769 0 00-.18-.096A1.19 1.19 0 003.8.543L.72.565C.405.565.19.637.079.78L.034.848a.366.366 0 00-.034.18c0 .083.022.185.067.305.45 1.06.94 2.084 1.468 3.07.528.985.987 1.778 1.377 2.38.39.602.787 1.17 1.192 1.704.405.534.673.876.804 1.027.13.15.234.263.309.338l.281.27c.18.181.444.398.793.65.348.252.734.5 1.158.745a6.27 6.27 0 001.478.598c.563.154 1.11.216 1.642.186h1.293c.262-.023.46-.106.596-.248l.045-.057a.749.749 0 00.084-.209 1.15 1.15 0 00.04-.31 3.734 3.734 0 01.072-.874c.056-.26.12-.455.191-.587a1.442 1.442 0 01.434-.496.737.737 0 01.09-.04c.18-.06.39-.002.635.175.243.177.472.395.686.655.213.26.47.55.77.874.3.324.562.564.787.722l.224.136c.15.09.346.173.586.248.239.075.449.094.629.057l2.878-.046c.285 0 .506-.047.663-.14.158-.095.251-.198.282-.311a.876.876 0 00.005-.384 1.413 1.413 0 00-.079-.299z"/></svg><svg fill="#171717" viewBox="0 0 14 17" id="header-youtube-black" xmlns="http://www.w3.org/2000/svg"><path fill-rule="evenodd" clip-rule="evenodd" d="M13.435 8.2a1.727 1.727 0 00-1.478-1.344c-1.695-.189-3.41-.19-5.119-.189-1.708 0-3.424 0-5.12.19-.715.08-1.31.616-1.477 1.343C.003 9.235 0 10.365 0 11.432c0 1.066 0 2.196.238 3.231a1.727 1.727 0 001.478 1.343c1.695.19 3.41.19 5.12.19 1.708 0 3.423 0 5.119-.19a1.727 1.727 0 001.477-1.343c.239-1.035.24-2.165.24-3.232 0-1.066.001-2.196-.237-3.231zM3.9 9.002h-.99v5.258h-.919V9.002H1.02v-.861H3.9v.861zm2.496 5.258H5.57v-.497c-.328.377-.64.56-.944.56-.266 0-.45-.108-.532-.339-.045-.138-.073-.356-.073-.678V9.701h.826v3.357c0 .193 0 .294.008.321.02.128.082.193.193.193.166 0 .339-.127.522-.386V9.7h.827v4.56zm3.139-1.368c0 .421-.028.725-.084.919-.11.339-.331.512-.66.512-.294 0-.577-.163-.854-.504v.442h-.826V8.14h.826v1.998c.267-.328.55-.494.854-.494.329 0 .55.173.66.514.056.184.084.485.084.917v1.816zm3.118-.76h-1.652v.807c0 .422.138.633.422.633.203 0 .322-.11.369-.331.007-.045.018-.229.018-.56h.843v.12c0 .267-.01.45-.018.533a1.177 1.177 0 01-.192.495c-.23.331-.568.494-1 .494-.432 0-.761-.155-1-.467-.175-.228-.265-.587-.265-1.072v-1.597c0-.487.08-.844.255-1.074.239-.312.568-.468.99-.468.415 0 .743.156.975.468.173.23.255.587.255 1.074v.944z"/><path fill-rule="evenodd" clip-rule="evenodd" d="M11.415 10.389c-.276 0-.414.21-.414.632v.422h.826v-.422c0-.421-.138-.632-.412-.632zM8.35 10.389c-.137 0-.275.064-.413.2v2.78c.138.138.276.203.412.203.239 0 .36-.203.36-.615v-1.946c0-.411-.121-.622-.36-.622zM8.81 6.247c.305 0 .622-.185.955-.566v.502h.835V1.575h-.835v3.522c-.185.262-.36.391-.528.391-.112 0-.177-.066-.196-.195-.01-.028-.01-.13-.01-.325V1.575H8.2V5.22c0 .326.028.546.074.685.084.234.269.343.538.343zM2.998 3.68v2.503h.926V3.68L5.038 0H4.1L3.47 2.428 2.812 0h-.974c.195.573.398 1.15.593 1.723.298.862.483 1.512.567 1.956zM6.279 6.247c.418 0 .743-.158.974-.472.175-.23.259-.594.259-1.084V3.078c0-.493-.084-.853-.26-1.086-.23-.315-.555-.472-.973-.472-.417 0-.741.157-.973.472-.177.233-.26.593-.26 1.086V4.69c0 .49.083.853.26 1.084.231.314.556.472.973.472zM5.88 2.91c0-.426.13-.639.399-.639s.398.213.398.64v1.938c0 .426-.13.64-.398.64-.27 0-.399-.214-.399-.64V2.91z"/></svg><svg fill="#69af07" viewBox="0 0 14 17" id="header-youtube-green" xmlns="http://www.w3.org/2000/svg"><path fill-rule="evenodd" clip-rule="evenodd" d="M13.435 8.2a1.727 1.727 0 00-1.478-1.344c-1.695-.189-3.41-.19-5.119-.189-1.708 0-3.424 0-5.12.19-.715.08-1.31.616-1.477 1.343C.003 9.235 0 10.365 0 11.432c0 1.066 0 2.196.238 3.231a1.727 1.727 0 001.478 1.343c1.695.19 3.41.19 5.12.19 1.708 0 3.423 0 5.119-.19a1.727 1.727 0 001.477-1.343c.239-1.035.24-2.165.24-3.232 0-1.066.001-2.196-.237-3.231zM3.9 9.002h-.99v5.258h-.919V9.002H1.02v-.861H3.9v.861zm2.496 5.258H5.57v-.497c-.328.377-.64.56-.944.56-.266 0-.45-.108-.532-.339-.045-.138-.073-.356-.073-.678V9.701h.826v3.357c0 .193 0 .294.008.321.02.128.082.193.193.193.166 0 .339-.127.522-.386V9.7h.827v4.56zm3.139-1.368c0 .421-.028.725-.084.919-.11.339-.331.512-.66.512-.294 0-.577-.163-.854-.504v.442h-.826V8.14h.826v1.998c.267-.328.55-.494.854-.494.329 0 .55.173.66.514.056.184.084.485.084.917v1.816zm3.118-.76h-1.652v.807c0 .422.138.633.422.633.203 0 .322-.11.369-.331.007-.045.018-.229.018-.56h.843v.12c0 .267-.01.45-.018.533a1.177 1.177 0 01-.192.495c-.23.331-.568.494-1 .494-.432 0-.761-.155-1-.467-.175-.228-.265-.587-.265-1.072v-1.597c0-.487.08-.844.255-1.074.239-.312.568-.468.99-.468.415 0 .743.156.975.468.173.23.255.587.255 1.074v.944z"/><path fill-rule="evenodd" clip-rule="evenodd" d="M11.415 10.389c-.276 0-.414.21-.414.632v.422h.826v-.422c0-.421-.138-.632-.412-.632zM8.35 10.389c-.137 0-.275.064-.413.2v2.78c.138.138.276.203.412.203.239 0 .36-.203.36-.615v-1.946c0-.411-.121-.622-.36-.622zM8.81 6.247c.305 0 .622-.185.955-.566v.502h.835V1.575h-.835v3.522c-.185.262-.36.391-.528.391-.112 0-.177-.066-.196-.195-.01-.028-.01-.13-.01-.325V1.575H8.2V5.22c0 .326.028.546.074.685.084.234.269.343.538.343zM2.998 3.68v2.503h.926V3.68L5.038 0H4.1L3.47 2.428 2.812 0h-.974c.195.573.398 1.15.593 1.723.298.862.483 1.512.567 1.956zM6.279 6.247c.418 0 .743-.158.974-.472.175-.23.259-.594.259-1.084V3.078c0-.493-.084-.853-.26-1.086-.23-.315-.555-.472-.973-.472-.417 0-.741.157-.973.472-.177.233-.26.593-.26 1.086V4.69c0 .49.083.853.26 1.084.231.314.556.472.973.472zM5.88 2.91c0-.426.13-.639.399-.639s.398.213.398.64v1.938c0 .426-.13.64-.398.64-.27 0-.399-.214-.399-.64V2.91z"/></svg><svg fill="#706f6f" viewBox="0 0 22 22" id="mail-grey-1" xmlns="http://www.w3.org/2000/svg"><path fill-rule="evenodd" clip-rule="evenodd" d="M19.715 3.041H2.285A2.269 2.269 0 00.02 5.308v11.385a2.269 2.269 0 002.267 2.266h17.428a2.269 2.269 0 002.267-2.266V5.308a2.269 2.269 0 00-2.267-2.267zm-.748 1.67l-7.448 5.91a.832.832 0 01-1.038 0L3.033 4.71h15.934zm1.344 11.982c0 .329-.267.596-.597.596H2.286a.596.596 0 01-.597-.596V5.777l7.754 6.151c.441.35.994.543 1.557.543s1.116-.193 1.557-.543l7.754-6.151v10.916z"/><path fill-rule="evenodd" clip-rule="evenodd" d="M19.715 18.978H2.285A2.288 2.288 0 010 16.693V5.307a2.288 2.288 0 012.286-2.285h17.428A2.288 2.288 0 0122 5.307v11.386a2.288 2.288 0 01-2.285 2.285zM2.285 3.061A2.25 2.25 0 00.04 5.307v11.386a2.25 2.25 0 002.247 2.246h17.428a2.25 2.25 0 002.247-2.246V5.307a2.25 2.25 0 00-2.246-2.246H2.285zm17.43 14.247H2.285a.616.616 0 01-.615-.615V5.736l7.786 6.177c.437.347.986.538 1.544.538.559 0 1.107-.191 1.544-.538l7.786-6.176v10.956c0 .34-.276.615-.615.615zM1.709 5.818v10.875c0 .318.258.576.577.576h17.428a.578.578 0 00.577-.576V5.817l-7.722 6.126A2.534 2.534 0 0111 12.49a2.534 2.534 0 01-1.569-.547L1.71 5.817zM11 10.82a.859.859 0 01-.531-.186L2.977 4.692h16.046l-7.492 5.943a.858.858 0 01-.531.186zm-7.912-6.09l7.405 5.874a.819.819 0 00.507.177.82.82 0 00.507-.177L18.91 4.73H3.088z"/></svg><svg fill="#171717;" viewBox="0 0 16 17" id="phone-black" xmlns="http://www.w3.org/2000/svg"><path fill-rule="evenodd" clip-rule="evenodd" d="M13.404 11.273c-.978-.837-1.971-1.344-2.938-.508l-.577.505c-.422.366-1.207 2.079-4.242-1.412-3.035-3.487-1.229-4.03-.806-4.394l.58-.505c.962-.838.599-1.892-.094-2.977l-.419-.658C4.212.242 3.453-.47 2.49.367l-.52.455C1.541 1.132.351 2.14.062 4.057c-.348 2.3.749 4.933 3.261 7.822 2.51 2.89 4.966 4.342 7.293 4.317 1.934-.021 3.102-1.059 3.468-1.436l.522-.456c.962-.835.365-1.686-.614-2.525l-.589-.506z"/></svg><svg fill="#69af07" viewBox="0 0 50 50" id="why-us-1" xmlns="http://www.w3.org/2000/svg"><path d="M48 1c-1.55 2.57-4.445 9.16-15.95 12.89a14.623 14.623 0 01-.234-2.605c-1.867 0-2.546-1.644-3.543-2.285-.96 2.14-2.386 3.684-3.543 4.57-1.89 1.446-3.695 2.575-4.73 3.43 4.48-1.047 6.059-1.14 8.273-1.14C30.488 15.86 33 17 33 17s-.414-.805-.754-2.176C37.086 13.996 46.266 10.578 48 1zM28 18c-1.703 0-3.207.082-5.184.406 0 .008.004.008.004.016.067.723.149 1.621-.488 2.422l-.844 1.05 1.254.5c.125.051.246.094.371.133v.02c0 1.406 1.34 1.652 1.985 1.77.87.16.87.214.87.542v.934c-.023.348-.062.703-.109 1.059a10.425 10.425 0 01-1.593 2.363c-.957-1.547-2.735-4.402-2.942-4.688a.997.997 0 00.453-1.062.998.998 0 00-.699-.727C20.762 22.496 20.273 22 20 22c-.234 0-1.129.242-1.5.332-.707.168-.46.602-.242.91l-1.324.305c-.954-2.121-1.372-1.149-2.164-1.047-1.102.2-2.2.398-1.598 1.598l.129.28-11.528 2.65a1 1 0 00-.75 1.195c.125.535.665.875 1.2.75l11.996-2.754c.344.375 1.11.718 1.953 1.98.2.399 4 5.801 5 5.801 1.367 0 2.71-.578 3.86-1.305l-.028 5.457 8.273-1.382C33.582 35.18 34 32.53 34 30c0-2.254-.93-3.445-1.762-4.285C37.79 28.629 35.297 39.835 40 46c1.188-.75 5.188-3.125 8-5-5.602-3.598-6.508-15.531-16.98-16.871-.106-.016-.582-.082-.582-.082v-.063c0-.054 0-.097.003-.125.047-.02.11-.039.157-.058.617-.203 1.765-.582 2.062-2.656l.274-1.891-1.57.781c-.079-.238-.153-.465-.223-.683a15.276 15.276 0 00-.375-1.086C30.004 18.046 28.84 18 28 18zm-8.473 7.004c.344.691 1.891 4.16 2.575 5.766a2.404 2.404 0 01-.73.132c-2.024-1.84-4.298-4.101-4.419-5.308zM33.578 38.75l-8.418 1.402.973 6.848H27c6.66 0 9.27-1.027 9.375-1.074l1.063-.43z"/></svg><svg fill="#69af07" viewBox="0 0 510.291 510.291" id="why-us-2" xmlns="http://www.w3.org/2000/svg"><path d="M183.12 85.236c6.517-4.778 6.329-4.414 52.15-30.33.1-.05.19-.11.29-.16-24.03-33.81-63.26-54.6-105.79-54.6C58.22.146 0 58.366 0 129.916v375.23c0 2.76 2.24 5 5 5h50c2.76 0 5-2.24 5-5v-375.23c0-38.63 31.56-70.03 70.25-69.77 20.74.14 39.87 9.68 52.87 25.09zM282.222 351.743c8.171-1.363 13.691-9.092 12.329-17.263l-2.317-13.894c-1.362-8.171-9.091-13.69-17.263-12.329-8.171 1.363-13.691 9.092-12.329 17.263l2.317 13.894c1.362 8.171 9.09 13.691 17.263 12.329zM358.3 310.066c7.224-4.054 9.794-13.198 5.739-20.422l-6.485-11.555c-4.055-7.225-13.198-9.795-20.422-5.739-7.224 4.054-9.794 13.198-5.739 20.422l6.485 11.555c4.058 7.231 13.207 9.789 20.422 5.739zM433.506 266.837c5.42-6.265 4.735-15.738-1.53-21.158l-10.653-9.216c-6.266-5.419-15.737-4.734-21.158 1.53-5.42 6.265-4.735 15.738 1.53 21.158l10.653 9.216c6.267 5.42 15.738 4.734 21.158-1.53zM298.648 409.607c-1.195-8.197-8.808-13.872-17.007-12.68-8.198 1.195-13.875 8.809-12.68 17.007l2.1 14.408c1.197 8.207 8.819 13.874 17.007 12.68 8.198-1.195 13.875-8.809 12.68-17.007zM364.473 368.682c-3.105-7.681-11.848-11.39-19.528-8.286-7.681 3.104-11.39 11.848-8.286 19.528l5.135 12.704c3.106 7.684 11.851 11.389 19.528 8.286 7.681-3.104 11.39-11.848 8.286-19.528zM429.369 327.892c-4.939-6.651-14.334-8.039-20.985-3.1s-8.039 14.334-3.1 20.985l8.169 11.001c4.939 6.652 14.336 8.038 20.985 3.1 6.651-4.939 8.039-14.334 3.1-20.985zM504.871 297.122l-11.204-9.298c-6.375-5.291-15.832-4.411-21.123 1.963-5.291 6.375-4.411 15.832 1.963 21.123l11.204 9.298c6.376 5.291 15.833 4.411 21.123-1.963 5.291-6.376 4.411-15.832-1.963-21.123z"/><path d="M185.78 211.116l167.01-94.47-4.77-8.44c-19.466-34.441-63.211-46.845-97.98-27.19-45.085 25.494-45.802 25.513-52.07 30.65-26.008 21.244-34.817 59.476-16.97 91zM412.64 150.066l-6.62-11.7c-4.098-7.281-13.378-9.796-20.58-5.72-8.672 4.894-198.697 112.377-202.73 114.66-7.182 4.049-9.835 13.273-5.71 20.58l6.62 11.71c5.532 9.779 17.922 13.215 27.71 7.69l193.62-109.51c9.768-5.535 13.229-17.918 7.69-27.71z"/></svg><svg fill="#69af07" viewBox="0 0 50 50" id="why-us-3" xmlns="http://www.w3.org/2000/svg"><path fill-rule="evenodd" d="M25.277 3s-2.773 3.082-2.105 7.813c.48 3.148 3.004 5.117 4.844 6.16.02 1.441-.02 2.855-.125 4.23-.965-2.2-2.614-4.726-5.36-5.652-3.437-1.32-7.875.11-7.875.11.555 4.398 3.442 8.03 8.098 8.91 1.879.257 3.488.316 4.695.331-.445 2.715-1.148 5.246-2.086 7.52-1.062-2.082-3.707-5.723-9.597-6.422-3.551-.441-6.657 1.98-6.657 1.98s1.774 7.918 8.985 7.81c2.62 0 4.816-.622 6.23-1.153-.976 1.863-2.125 3.515-3.453 4.894C17.543 42.938 13.215 44.7 8 44.7v2.203c5.879 0 10.762-1.98 14.531-5.941 1.574-1.625 2.89-3.555 3.965-5.75 1.016.578 3.668 1.789 8.238 1.789 5.993 0 8.766-6.598 8.766-6.598S40.504 28.2 35.844 28.2c-3.774 0-6.637 2.563-8.282 4.52.883-2.356 1.524-4.965 1.926-7.809 1.059.059 6.59.211 9.907-2.98 3.55-3.52 2.996-6.82 2.996-6.82s-5.993-.88-9.317 2.09c-1.62 1.413-2.699 3.78-3.324 5.523.148-1.551.238-3.16.258-4.832.023-.036 1.926-2.598 1.926-6.75C31.934 5.312 25.277 3 25.277 3z"/></svg><svg fill="#69af07" viewBox="0 0 512 512" id="why-us-4" xmlns="http://www.w3.org/2000/svg"><path d="M318.72 293.065c-12.87-7.03-27.63-11.02-43.32-11.02h-37.29c-16.13 0-31.27 4.22-44.38 11.61-27.57 15.52-46.19 45.07-46.19 78.96v27.94h218.43v-27.94c0-34.33-19.1-64.19-47.25-79.55zM421.7 257.225h-31c-18.1 0-34.97 5.35-49.12 14.57 6.8 4.46 13.19 9.67 19.08 15.56 22.77 22.77 35.31 53.05 35.31 85.26v13.14H512v-38.23c0-49.79-40.51-90.3-90.3-90.3zM121.3 257.225h-31c-49.79 0-90.3 40.51-90.3 90.3v38.23h117.54v-13.14c0-32.21 12.55-62.49 35.32-85.26 5.67-5.67 11.8-10.71 18.32-15.06-14.3-9.52-31.45-15.07-49.88-15.07zM406.153 121.416c-.159 0-.324.001-.484.003-33.558.277-60.622 29.282-60.33 64.655.291 35.205 27.565 63.652 60.906 63.652.16 0 .324-.001.484-.003 16.455-.136 31.81-7.068 43.238-19.521 11.162-12.164 17.232-28.192 17.093-45.134-.291-35.205-27.565-63.652-60.907-63.652zM105.754 121.416c-.159 0-.324.001-.484.003-33.558.277-60.622 29.282-60.33 64.655.29 35.205 27.565 63.652 60.906 63.652.16 0 .324-.001.484-.003 16.454-.136 31.81-7.068 43.238-19.521 11.163-12.164 17.233-28.192 17.093-45.134-.291-35.205-27.565-63.652-60.907-63.652zM256.76 111.445c-38.69 0-70.16 33.25-70.16 74.13 0 29.54 16.44 55.1 40.17 67 9.1 4.57 19.27 7.12 29.99 7.12 10.72 0 20.89-2.55 29.99-7.12 23.73-11.9 40.17-37.46 40.17-67 0-40.88-31.47-74.13-70.16-74.13z"/></svg></svg>