<svg width="9" height="17" viewBox="0 0 9 17" xmlns="http://www.w3.org/2000/svg">
<path fill-rule="evenodd" clip-rule="evenodd" d="M8.4266 0.00336986L6.32635 0C3.9668 0 2.44195 1.56446 2.44195 3.98588V5.82363H0.330243C0.147767 5.82363 0 5.97157 0 6.15405V8.81674C0 8.99922 0.147936 9.14699 0.330243 9.14699H2.44195V15.8658C2.44195 16.0483 2.58971 16.1961 2.77219 16.1961H5.52736C5.70984 16.1961 5.85761 16.0481 5.85761 15.8658V9.14699H8.32668C8.50916 9.14699 8.65693 8.99922 8.65693 8.81674L8.65794 6.15405C8.65794 6.06643 8.62306 5.98252 8.56122 5.92051C8.49938 5.85851 8.41514 5.82363 8.32752 5.82363H5.85761V4.26574C5.85761 3.51696 6.03604 3.13684 7.01144 3.13684L8.42626 3.13633C8.60857 3.13633 8.75633 2.9884 8.75633 2.80609V0.333617C8.75633 0.151475 8.60874 0.00370685 8.4266 0.00336986Z"/>
</svg>
