<svg width="174" height="36" viewBox="0 0 174 36" xmlns="http://www.w3.org/2000/svg">
<path fill-rule="evenodd" clip-rule="evenodd" d="M10.3945 17.5469C10.3945 17.2422 10.3398 16.957 10.2305 16.6914C10.1289 16.4258 9.94922 16.1797 9.69141 15.9531C9.44141 15.7188 9.10938 15.5078 8.69531 15.3203C8.28906 15.125 7.78125 14.9453 7.17188 14.7812C6.42969 14.5781 5.71875 14.3242 5.03906 14.0195C4.36719 13.7148 3.77344 13.3477 3.25781 12.918C2.74219 12.4883 2.32812 11.9883 2.01562 11.418C1.71094 10.8477 1.55859 10.1914 1.55859 9.44922C1.55859 8.73047 1.71094 8.07812 2.01562 7.49219C2.32031 6.90625 2.74219 6.40625 3.28125 5.99219C3.82031 5.57813 4.45703 5.26172 5.19141 5.04297C5.92578 4.81641 6.72266 4.70312 7.58203 4.70312C8.47266 4.70312 9.28516 4.83203 10.0195 5.08984C10.7617 5.34766 11.3984 5.71094 11.9297 6.17969C12.4609 6.64062 12.875 7.19141 13.1719 7.83203C13.4688 8.47266 13.6172 9.17578 13.6172 9.94141H10.4062C10.3906 9.55859 10.3203 9.20703 10.1953 8.88672C10.0781 8.56641 9.89844 8.29297 9.65625 8.06641C9.42188 7.83203 9.125 7.65234 8.76562 7.52734C8.41406 7.39453 8 7.32812 7.52344 7.32812C7.08594 7.32812 6.69531 7.38281 6.35156 7.49219C6.01562 7.59375 5.73047 7.74219 5.49609 7.9375C5.26172 8.125 5.08203 8.35156 4.95703 8.61719C4.83984 8.875 4.78125 9.15625 4.78125 9.46094C4.78125 9.78125 4.85938 10.0703 5.01562 10.3281C5.17969 10.5859 5.41406 10.8203 5.71875 11.0312C6.02344 11.2344 6.39062 11.4219 6.82031 11.5938C7.25781 11.7656 7.75 11.9258 8.29688 12.0742C9.07812 12.3008 9.79688 12.5781 10.4531 12.9062C11.1094 13.2344 11.6719 13.625 12.1406 14.0781C12.6172 14.5234 12.9844 15.0352 13.2422 15.6133C13.5078 16.1836 13.6406 16.8203 13.6406 17.5234C13.6406 18.2734 13.4883 18.9414 13.1836 19.5273C12.8867 20.1055 12.4727 20.5977 11.9414 21.0039C11.4102 21.4023 10.7773 21.707 10.043 21.918C9.30859 22.1211 8.50781 22.2227 7.64062 22.2227C7.10156 22.2227 6.5625 22.1719 6.02344 22.0703C5.49219 21.9766 4.98047 21.8281 4.48828 21.625C4.00391 21.4219 3.55078 21.168 3.12891 20.8633C2.70703 20.5586 2.33984 20.2031 2.02734 19.7969C1.72266 19.3906 1.48047 18.9297 1.30078 18.4141C1.12891 17.8984 1.04297 17.3281 1.04297 16.7031H4.27734C4.29297 17.2188 4.38281 17.6602 4.54688 18.0273C4.71094 18.3945 4.9375 18.6953 5.22656 18.9297C5.52344 19.1641 5.875 19.3359 6.28125 19.4453C6.69531 19.5547 7.14844 19.6094 7.64062 19.6094C8.07812 19.6094 8.46484 19.5586 8.80078 19.457C9.14453 19.3555 9.43359 19.2148 9.66797 19.0352C9.90234 18.8555 10.082 18.6406 10.207 18.3906C10.332 18.1328 10.3945 17.8516 10.3945 17.5469ZM23.3798 18.4375H18.2587L17.2509 22H13.7822L19.372 4.9375H22.3603L27.8447 22H24.3759L23.3798 18.4375ZM19.0673 15.6367H22.6064L20.8603 9.35547L19.0673 15.6367ZM28.373 22V4.9375H32.7909C33.9237 4.9375 34.9472 5.13281 35.8612 5.52344C36.7831 5.90625 37.5683 6.44531 38.2167 7.14062C38.873 7.82813 39.3769 8.65234 39.7284 9.61328C40.0878 10.5742 40.2675 11.6289 40.2675 12.7773V14.1836C40.2675 15.332 40.0878 16.3867 39.7284 17.3477C39.3769 18.3008 38.8808 19.125 38.2402 19.8203C37.5995 20.5078 36.83 21.043 35.9316 21.4258C35.0331 21.8086 34.0409 22 32.955 22H28.373ZM31.6894 7.60938V19.3516H32.955C33.5722 19.3516 34.123 19.2344 34.6073 19C35.0995 18.7656 35.5136 18.4258 35.8495 17.9805C36.1933 17.5352 36.455 16.9961 36.6347 16.3633C36.8144 15.7227 36.9042 14.9961 36.9042 14.1836V12.7539C36.9042 11.9883 36.8144 11.293 36.6347 10.668C36.4628 10.0352 36.2011 9.49219 35.8495 9.03906C35.5058 8.58594 35.0761 8.23438 34.5605 7.98438C34.0527 7.73438 33.4628 7.60938 32.7909 7.60938H31.6894ZM53.745 16.6562C53.6903 17.5156 53.5028 18.2891 53.1825 18.9766C52.87 19.6641 52.4481 20.25 51.9169 20.7344C51.3856 21.2188 50.7528 21.5938 50.0184 21.8594C49.2841 22.1172 48.4716 22.2461 47.5809 22.2461C46.5731 22.2461 45.6786 22.0625 44.8973 21.6953C44.1161 21.3203 43.4598 20.8008 42.9286 20.1367C42.3973 19.4648 41.9911 18.6602 41.7098 17.7227C41.4286 16.7852 41.288 15.7539 41.288 14.6289V12.332C41.288 11.1992 41.4364 10.1641 41.7333 9.22656C42.0302 8.28906 42.452 7.48437 42.9989 6.8125C43.5458 6.14063 44.2059 5.62109 44.9794 5.25391C45.7606 4.87891 46.6356 4.69141 47.6044 4.69141C48.5419 4.69141 49.3739 4.82422 50.1005 5.08984C50.8348 5.35547 51.4598 5.73438 51.9755 6.22656C52.4911 6.71875 52.8973 7.32031 53.1942 8.03125C53.4911 8.74219 53.6786 9.54297 53.7567 10.4336H50.4755C50.4442 9.92578 50.3661 9.48047 50.2411 9.09766C50.1239 8.71484 49.9481 8.39844 49.7137 8.14844C49.4872 7.89062 49.1981 7.69922 48.8466 7.57422C48.5028 7.44141 48.0887 7.375 47.6044 7.375C47.0966 7.375 46.6552 7.48437 46.2802 7.70312C45.9052 7.92188 45.5927 8.24219 45.3427 8.66406C45.1005 9.08594 44.9208 9.60547 44.8036 10.2227C44.6864 10.832 44.6278 11.5273 44.6278 12.3086V14.6289C44.6278 16.3086 44.8622 17.5508 45.3309 18.3555C45.8075 19.1602 46.5575 19.5625 47.5809 19.5625C48.4403 19.5625 49.12 19.3359 49.62 18.8828C50.12 18.4219 50.3973 17.6797 50.452 16.6562H53.745ZM65.8514 14.5234H58.8436V19.3398H67.035V22H55.5389V4.9375H66.9998V7.62109H58.8436V11.9219H65.8514V14.5234ZM80.0555 22H76.7742L72.0281 10.9961V22H68.7117V4.9375H72.0281L76.7391 15.8945L76.7508 4.9375H80.0555V22ZM94.7986 7.62109H89.5369V22H86.2322V7.62109H81.0408V4.9375H94.7986V7.62109ZM106.214 14.5234H99.2058V19.3398H107.397V22H95.9011V4.9375H107.362V7.62109H99.2058V11.9219H106.214V14.5234ZM114.957 15.625H112.461V22H109.168V4.9375H114.886C115.832 4.9375 116.687 5.05078 117.453 5.27734C118.218 5.49609 118.871 5.82031 119.41 6.25C119.957 6.67969 120.375 7.21484 120.664 7.85547C120.961 8.49609 121.109 9.23828 121.109 10.082C121.109 10.6914 121.035 11.2422 120.886 11.7344C120.746 12.2188 120.539 12.6562 120.265 13.0469C120 13.4297 119.675 13.7656 119.293 14.0547C118.918 14.3438 118.496 14.5938 118.027 14.8047L121.695 21.8477V22H118.168L114.957 15.625ZM112.461 12.9531H114.898C115.828 12.9531 116.543 12.7188 117.043 12.25C117.55 11.7734 117.804 11.125 117.804 10.3047C117.804 9.45312 117.558 8.79297 117.066 8.32422C116.574 7.84766 115.847 7.60938 114.886 7.60938H112.461V12.9531Z" fill="#69AF07"/>
<path fill-rule="evenodd" clip-rule="evenodd" d="M122.598 22V4.9375H128.329C129.258 4.9375 130.102 5.03125 130.86 5.21875C131.626 5.40625 132.278 5.69141 132.817 6.07422C133.356 6.45703 133.77 6.94141 134.059 7.52734C134.356 8.11328 134.505 8.80469 134.505 9.60156C134.497 10.3984 134.282 11.1133 133.86 11.7461C133.446 12.3789 132.833 12.8594 132.02 13.1875C132.512 13.3125 132.938 13.5 133.298 13.75C133.657 14 133.954 14.2969 134.188 14.6406C134.43 14.9766 134.606 15.3477 134.715 15.7539C134.833 16.1523 134.891 16.5664 134.891 16.9961C134.891 17.8164 134.751 18.5391 134.469 19.1641C134.188 19.7891 133.786 20.3125 133.262 20.7344C132.739 21.1562 132.102 21.4727 131.352 21.6836C130.602 21.8945 129.758 22 128.821 22H122.598ZM125.903 14.4766V19.3398H128.833C129.731 19.332 130.415 19.1133 130.883 18.6836C131.36 18.2461 131.598 17.6758 131.598 16.9727C131.606 16.1914 131.395 15.582 130.965 15.1445C130.536 14.707 129.872 14.4844 128.973 14.4766H125.903ZM125.903 12.0977H128.352C129.266 12.0898 129.969 11.8984 130.462 11.5234C130.954 11.1484 131.204 10.5977 131.212 9.87109C131.212 9.07422 130.965 8.50391 130.473 8.16016C129.981 7.80859 129.27 7.62891 128.34 7.62109H125.903V12.0977ZM141.9 12.8008L145.263 4.9375H148.884L143.517 16.0938L143.505 22H140.224L140.212 15.9531L134.927 4.9375H138.537L141.9 12.8008Z" fill="#483B33"/>
<path fill-rule="evenodd" clip-rule="evenodd" d="M7.61719 33H6.14062V25.6641H2.38477V33H0.908203V24.4688H7.61719V33ZM12.7505 26.6602H14.1684V33H12.7505V28.7695L10.2661 33H8.84813V26.6602H10.2661V30.8906L12.7505 26.6602ZM20.1923 27.791H18.1357V33H16.7119V27.791H14.6787V26.6602H20.1923V27.791ZM20.2221 29.7715C20.2221 29.1504 20.3452 28.5918 20.5912 28.0957C20.8373 27.5957 21.183 27.2129 21.6284 26.9473C22.0737 26.6777 22.5854 26.543 23.1635 26.543C24.019 26.543 24.7123 26.8184 25.2436 27.3691C25.7787 27.9199 26.0678 28.6504 26.1108 29.5605L26.1166 29.8945C26.1166 30.5195 25.9955 31.0781 25.7534 31.5703C25.5151 32.0625 25.1713 32.4434 24.7221 32.7129C24.2768 32.9824 23.7612 33.1172 23.1752 33.1172C22.2807 33.1172 21.5639 32.8203 21.0248 32.2266C20.4897 31.6289 20.2221 30.834 20.2221 29.8418V29.7715ZM21.6459 29.8945C21.6459 30.5469 21.7807 31.0586 22.0502 31.4297C22.3198 31.7969 22.6948 31.9805 23.1752 31.9805C23.6557 31.9805 24.0287 31.793 24.2944 31.418C24.5639 31.043 24.6987 30.4941 24.6987 29.7715C24.6987 29.1309 24.56 28.623 24.2827 28.248C24.0092 27.873 23.6362 27.6855 23.1635 27.6855C22.6987 27.6855 22.3295 27.8711 22.0561 28.2422C21.7827 28.6094 21.6459 29.1602 21.6459 29.8945ZM30.6054 31.248L32.4804 26.6602H34.2616V33H32.8378V28.8047L31.0917 33H30.1249L28.373 28.7812V33H26.9491V26.6602H28.7421L30.6054 31.248ZM40.7543 33H39.3305V30.4395H36.8637V33H35.4398V26.6602H36.8637V29.3027H39.3305V26.6602H40.7543V33ZM45.7528 26.6602H47.1708V33H45.7528V28.7695L43.2684 33H41.8505V26.6602H43.2684V30.8906L45.7528 26.6602ZM50.4584 30.4922H49.7377V33H48.3138V26.6602H49.7377V29.1914H50.3646L52.1166 26.6602H53.8744L51.5834 29.6953L54.0677 33H52.2162L50.4584 30.4922ZM62.43 29.8945C62.43 30.875 62.2073 31.6582 61.762 32.2441C61.3167 32.8262 60.7191 33.1172 59.9691 33.1172C59.2738 33.1172 58.7171 32.8887 58.2991 32.4316V35.4375H56.8753V26.6602H58.1878L58.2464 27.3047C58.6644 26.7969 59.2327 26.543 59.9515 26.543C60.7249 26.543 61.3304 26.832 61.7679 27.4102C62.2093 27.9844 62.43 28.7832 62.43 29.8066V29.8945ZM61.012 29.7715C61.012 29.1387 60.8851 28.6367 60.6312 28.2656C60.3812 27.8945 60.0218 27.709 59.553 27.709C58.971 27.709 58.553 27.9492 58.2991 28.4297V31.2422C58.557 31.7344 58.9788 31.9805 59.5648 31.9805C60.0179 31.9805 60.3714 31.7988 60.6253 31.4355C60.8831 31.0684 61.012 30.5137 61.012 29.7715ZM66.948 33C66.8855 32.8789 66.8309 32.6816 66.784 32.4082C66.3309 32.8809 65.7762 33.1172 65.1199 33.1172C64.4832 33.1172 63.9637 32.9355 63.5613 32.5723C63.159 32.209 62.9578 31.7598 62.9578 31.2246C62.9578 30.5488 63.2078 30.0312 63.7078 29.6719C64.2117 29.3086 64.9305 29.127 65.8641 29.127H66.7371V28.7109C66.7371 28.3828 66.6453 28.1211 66.4617 27.9258C66.2781 27.7266 65.9988 27.627 65.6238 27.627C65.2996 27.627 65.034 27.709 64.827 27.873C64.6199 28.0332 64.5164 28.2383 64.5164 28.4883H63.0926C63.0926 28.1406 63.2078 27.8164 63.4383 27.5156C63.6688 27.2109 63.9813 26.9727 64.3758 26.8008C64.7742 26.6289 65.2176 26.543 65.7059 26.543C66.448 26.543 67.0398 26.7305 67.4813 27.1055C67.9227 27.4766 68.1492 28 68.1609 28.6758V31.5352C68.1609 32.1055 68.241 32.5605 68.4012 32.9004V33H66.948ZM65.3836 31.9746C65.6648 31.9746 65.9285 31.9062 66.1746 31.7695C66.4246 31.6328 66.6121 31.4492 66.7371 31.2188V30.0234H65.9695C65.4422 30.0234 65.0457 30.1152 64.7801 30.2988C64.5145 30.4824 64.3816 30.7422 64.3816 31.0781C64.3816 31.3516 64.4715 31.5703 64.6512 31.7344C64.8348 31.8945 65.0789 31.9746 65.3836 31.9746ZM71.7766 31.9805C72.1321 31.9805 72.427 31.877 72.6614 31.6699C72.8958 31.4629 73.0208 31.207 73.0364 30.9023H74.3782C74.3626 31.2969 74.2395 31.666 74.0091 32.0098C73.7786 32.3496 73.4661 32.6191 73.0716 32.8184C72.677 33.0176 72.2513 33.1172 71.7942 33.1172C70.9075 33.1172 70.2044 32.8301 69.6848 32.2559C69.1653 31.6816 68.9055 30.8887 68.9055 29.877V29.7305C68.9055 28.7656 69.1634 27.9941 69.679 27.416C70.1946 26.834 70.8977 26.543 71.7884 26.543C72.5423 26.543 73.1555 26.7637 73.6282 27.2051C74.1048 27.6426 74.3548 28.2188 74.3782 28.9336H73.0364C73.0208 28.5703 72.8958 28.2715 72.6614 28.0371C72.4309 27.8027 72.136 27.6855 71.7766 27.6855C71.3157 27.6855 70.9602 27.8535 70.7102 28.1895C70.4602 28.5215 70.3333 29.0273 70.3294 29.707V29.9355C70.3294 30.623 70.4524 31.1367 70.6985 31.4766C70.9485 31.8125 71.3079 31.9805 71.7766 31.9805ZM79.9627 27.791H77.906V33H76.4822V27.791H74.449V26.6602H79.9627V27.791ZM84.3928 26.6602H85.8108V33H84.3928V28.7695L81.9084 33H80.4905V26.6602H81.9084V30.8906L84.3928 26.6602ZM91.8347 27.791H89.778V33H88.3542V27.791H86.321V26.6602H91.8347V27.791ZM94.7238 33.1172C93.8215 33.1172 93.0891 32.834 92.5266 32.2676C91.968 31.6973 91.6887 30.9395 91.6887 29.9941V29.8184C91.6887 29.1855 91.8098 28.6211 92.052 28.125C92.298 27.625 92.6418 27.2363 93.0832 26.959C93.5246 26.6816 94.0168 26.543 94.5598 26.543C95.423 26.543 96.0891 26.8184 96.5578 27.3691C97.0305 27.9199 97.2668 28.6992 97.2668 29.707V30.2812H93.1242C93.1672 30.8047 93.341 31.2188 93.6457 31.5234C93.9543 31.8281 94.341 31.9805 94.8059 31.9805C95.4582 31.9805 95.9895 31.7168 96.3996 31.1895L97.1672 31.9219C96.9133 32.3008 96.5734 32.5957 96.1477 32.8066C95.7258 33.0137 95.2512 33.1172 94.7238 33.1172ZM94.5539 27.6855C94.1633 27.6855 93.8469 27.8223 93.6047 28.0957C93.3664 28.3691 93.2141 28.75 93.1477 29.2383H95.8605V29.1328C95.8293 28.6562 95.7023 28.2969 95.4797 28.0547C95.257 27.8086 94.9484 27.6855 94.5539 27.6855ZM103.285 26.6602V33H101.861V27.8086H100.068L99.9509 30.0176C99.8766 31.0801 99.6716 31.8438 99.3356 32.3086C99.0036 32.7695 98.4938 33 97.8063 33H97.3669L97.361 31.8164L97.654 31.7871C97.9665 31.7441 98.193 31.5547 98.3337 31.2188C98.4782 30.8789 98.57 30.2617 98.6091 29.3672L98.7262 26.6602H103.285ZM105.852 28.6758H107.246C107.766 28.6758 108.219 28.7656 108.606 28.9453C108.992 29.125 109.285 29.377 109.485 29.7012C109.688 30.0254 109.789 30.4023 109.789 30.832C109.789 31.4844 109.559 32.0078 109.098 32.4023C108.637 32.7969 108.024 32.9961 107.258 33H104.428V26.6602H105.852V28.6758ZM105.852 29.8184V31.8633H107.24C107.588 31.8633 107.861 31.7773 108.061 31.6055C108.264 31.4297 108.365 31.1816 108.365 30.8613C108.365 30.541 108.266 30.2891 108.067 30.1055C107.871 29.918 107.606 29.8223 107.27 29.8184H105.852ZM115.819 33H114.395V30.4395H111.928V33H110.505V26.6602H111.928V29.3027H114.395V26.6602H115.819V33ZM118.392 28.6758H119.786C120.306 28.6758 120.759 28.7656 121.146 28.9453C121.532 29.125 121.825 29.377 122.025 29.7012C122.228 30.0254 122.329 30.4023 122.329 30.832C122.329 31.4844 122.099 32.0078 121.638 32.4023C121.177 32.7969 120.564 32.9961 119.798 33H116.968V26.6602H118.392V28.6758ZM124.808 33H123.384V26.6602H124.808V33ZM118.392 29.8184V31.8633H119.78C120.128 31.8633 120.401 31.7773 120.601 31.6055C120.804 31.4297 120.905 31.1816 120.905 30.8613C120.905 30.541 120.806 30.2891 120.607 30.1055C120.411 29.918 120.146 29.8223 119.81 29.8184H118.392ZM128.312 28.7461L129.519 26.6602H131.101L129.162 29.7832L131.166 33H129.595L128.33 30.832L127.07 33H125.488L127.492 29.7832L125.558 26.6602H127.129L128.312 28.7461ZM136.352 30.4922H135.631V33H134.208V26.6602H135.631V29.1914H136.258L138.01 26.6602H139.768L137.477 29.6953L139.961 33H138.11L136.352 30.4922ZM142.481 30.9609L143.771 26.6602H145.288L142.769 33.9609C142.382 35.0273 141.726 35.5605 140.8 35.5605C140.593 35.5605 140.364 35.5254 140.114 35.4551V34.3535L140.384 34.3711C140.743 34.3711 141.013 34.3047 141.192 34.1719C141.376 34.043 141.521 33.8242 141.626 33.5156L141.831 32.9707L139.605 26.6602H141.14L142.481 30.9609ZM150.773 26.6602V33H149.349V27.8086H147.556L147.439 30.0176C147.365 31.0801 147.16 31.8438 146.824 32.3086C146.492 32.7695 145.982 33 145.294 33H144.855L144.849 31.8164L145.142 31.7871C145.455 31.7441 145.681 31.5547 145.822 31.2188C145.966 30.8789 146.058 30.2617 146.097 29.3672L146.214 26.6602H150.773ZM153.34 28.6758H154.734C155.254 28.6758 155.707 28.7656 156.094 28.9453C156.48 29.125 156.773 29.377 156.973 29.7012C157.176 30.0254 157.277 30.4023 157.277 30.832C157.277 31.4844 157.047 32.0078 156.586 32.4023C156.125 32.7969 155.512 32.9961 154.746 33H151.916V26.6602H153.34V28.6758ZM153.34 29.8184V31.8633H154.729C155.076 31.8633 155.35 31.7773 155.549 31.6055C155.752 31.4297 155.854 31.1816 155.854 30.8613C155.854 30.541 155.754 30.2891 155.555 30.1055C155.359 29.918 155.094 29.8223 154.758 29.8184H153.34ZM162.047 27.791H159.991V33H158.567V27.791H156.534V26.6602H162.047V27.791ZM164.808 30.9609L166.097 26.6602H167.614L165.095 33.9609C164.708 35.0273 164.052 35.5605 163.126 35.5605C162.919 35.5605 162.69 35.5254 162.44 35.4551V34.3535L162.71 34.3711C163.069 34.3711 163.339 34.3047 163.519 34.1719C163.702 34.043 163.847 33.8242 163.952 33.5156L164.157 32.9707L161.931 26.6602H163.466L164.808 30.9609ZM173.509 29.8945C173.509 30.875 173.287 31.6582 172.841 32.2441C172.396 32.8262 171.798 33.1172 171.048 33.1172C170.353 33.1172 169.796 32.8887 169.378 32.4316V35.4375H167.955V26.6602H169.267L169.326 27.3047C169.744 26.7969 170.312 26.543 171.031 26.543C171.804 26.543 172.41 26.832 172.847 27.4102C173.289 27.9844 173.509 28.7832 173.509 29.8066V29.8945ZM172.091 29.7715C172.091 29.1387 171.964 28.6367 171.71 28.2656C171.46 27.8945 171.101 27.709 170.632 27.709C170.05 27.709 169.632 27.9492 169.378 28.4297V31.2422C169.636 31.7344 170.058 31.9805 170.644 31.9805C171.097 31.9805 171.451 31.7988 171.705 31.4355C171.962 31.0684 172.091 30.5137 172.091 29.7715Z" fill="#483B33"/>
</svg>
